<svg xmlns="http://www.w3.org/2000/svg" viewBox="0 0 391.65 77.18"><defs><style>.cls-1{fill:none;}.cls-2,.cls-4{stroke:#000;stroke-miterlimit:10;}.cls-3{fill:#ff7bac;}.cls-4{fill:#ff0;}.cls-5{fill:#fff;}</style></defs><g id="Capa_2" data-name="Capa 2"><g id="Capa_1-2" data-name="Capa 1"><rect class="cls-1" x="23.34" y="0.48" width="97" height="75"/><rect class="cls-1" x="26.34" y="47.48" width="7"/><ellipse class="cls-2" cx="62.73" cy="43.06" rx="36.11" ry="20.16"/><ellipse class="cls-2" cx="92.68" cy="47.6" rx="6.62" ry="26" transform="translate(12.23 113.88) rotate(-66.69)"/><ellipse class="cls-2" cx="81.68" cy="56.06" rx="6.62" ry="26" transform="translate(-2.19 108.89) rotate(-66.69)"/><ellipse class="cls-2" cx="36.68" cy="53.06" rx="26" ry="6.62" transform="translate(-23.24 29.02) rotate(-33.46)"/><ellipse class="cls-2" cx="39.68" cy="47.06" rx="26" ry="6.62" transform="translate(-13.96 16.75) rotate(-20.37)"/><path d="M35.17,31.77l-6.8,0a2.37,2.37,0,0,1-1.15-.19,2.05,2.05,0,0,1-.81-1.27A10.87,10.87,0,0,1,28,21.6c.74-1.15,1.68-2.49,1.16-3.75a3.19,3.19,0,0,0-1.06-1.22c-3.72-2.94-8.8-3.36-13.55-3.34-4.56,0-9.43.44-13.07,3.2q6.18,0,12.36.12c1.9.06,4.18.35,5,2.07,1.49,3.05-3.37,6.54-1.87,9.59.7,1.43,2.46,1.91,4,2.24q8.63,1.79,17.29,3.33" transform="translate(-0.06)"/><path d="M35.17,30.27l-6.07,0c-.27,0-1,.11-1.15-.07s-.2-.68-.24-.89a7.65,7.65,0,0,1,0-2.9,13.7,13.7,0,0,1,2.08-4.8c.87-1.42,1.5-3.15.6-4.72-1.56-2.76-5.72-4.06-8.63-4.59a42.46,42.46,0,0,0-10-.46c-3.87.22-7.8,1-11,3.32A1.52,1.52,0,0,0,1.5,18c2.64,0,5.27,0,7.91,0,2.15,0,4.56-.21,6.65.36,3.59,1-.25,5.34-.7,7.41a4.54,4.54,0,0,0,1.41,4.56c1.57,1.34,3.81,1.6,5.77,2q7.66,1.56,15.37,2.94c1.89.34,2.7-2.55.8-2.89q-6.15-1.11-12.26-2.32c-1.9-.38-3.82-.71-5.71-1.17-1.08-.27-2.6-.69-2.53-2.06a8.87,8.87,0,0,1,1.29-3.16A8.66,8.66,0,0,0,20.66,20c0-3.1-2.8-4.48-5.5-4.77A63.86,63.86,0,0,0,8.67,15Q5.09,15,1.5,15l.76,2.79c3.57-2.61,8-3,12.31-3,4,0,8.36.21,11.84,2.45.37.24,1.05.59,1.26,1,.29.56,0,1-.27,1.52-.53,1-1.2,1.89-1.66,2.93a12.41,12.41,0,0,0-1.14,6c.17,2,.75,4.17,3,4.52a22.83,22.83,0,0,0,3.7,0l3.88,0a1.5,1.5,0,0,0,0-3Z" transform="translate(-0.06)"/><path d="M24.69,13.79l-.18.06a1.26,1.26,0,0,0-.51.27,1,1,0,0,0-.38.42,1.12,1.12,0,0,0-.18.56,1,1,0,0,0,0,.6l.15.35a1.45,1.45,0,0,0,.53.54l.36.15a1.55,1.55,0,0,0,.8,0l.18-.06a1,1,0,0,0,.51-.26,1.31,1.31,0,0,0,.39-.42,1,1,0,0,0,.17-.56,1.11,1.11,0,0,0,0-.6l-.15-.36a1.74,1.74,0,0,0-.54-.54l-.36-.15a1.55,1.55,0,0,0-.8,0Z" transform="translate(-0.06)"/><path class="cls-3" d="M81.46,14.16a22.23,22.23,0,0,1,0-11.31,1,1,0,0,1,.37-.64,1,1,0,0,1,.7,0,21.14,21.14,0,0,1,3.18,1q7.51,3,14.73,6.67c.1,0,.22.13.2.24s-.24.09-.18,0" transform="translate(-0.06)"/><path d="M82.9,13.76a21.61,21.61,0,0,1-.68-5.43A21,21,0,0,1,82.4,5.7c.06-.47.15-.94.25-1.41a4.69,4.69,0,0,1,.23-1l-.67.38c-.2-.06-.12,0,.23.05l.65.18,1,.32c.76.27,1.52.58,2.28.89Q88.61,6,90.88,7t4.51,2.06a34.57,34.57,0,0,1,4.43,2.22l-.69-.89.06.14.38-1.46-.06.07,1.06-.44h-.1l1.44,1.1,0-.07c-.46-1.87-3.36-1.08-2.89.8l0,.07a1.55,1.55,0,0,0,1.45,1.1,1.5,1.5,0,0,0,1.22-.5,1.47,1.47,0,0,0,.39-1.46c-.59-1.4-2.4-1.91-3.69-2.54-1.49-.72-3-1.43-4.49-2.11C91,3.79,88.12,2.52,85.16,1.42,84,1,82.28.21,81.06.91s-1.37,2.73-1.55,4a24.39,24.39,0,0,0,.5,9.66c.48,1.87,3.37,1.08,2.89-.8Z" transform="translate(-0.06)"/><path d="M100.85,7.16a24.74,24.74,0,0,1,5.22-5.54,75.4,75.4,0,0,1,6.05,10.16" transform="translate(-0.06)"/><path d="M102.15,7.91a23.76,23.76,0,0,1,5-5.23l-2.36-.3a76,76,0,0,1,6,10.16A1.5,1.5,0,1,0,113.41,11a75.4,75.4,0,0,0-6-10.16A1.53,1.53,0,0,0,105,.56,26.28,26.28,0,0,0,99.56,6.4a1.5,1.5,0,0,0,.53,2,1.54,1.54,0,0,0,2.06-.54Z" transform="translate(-0.06)"/><ellipse class="cls-2" cx="99.34" cy="25.48" rx="22.5" ry="18.5"/><ellipse class="cls-4" cx="100.84" cy="22.48" rx="5" ry="3.5"/><path d="M100.25,20.43a5.87,5.87,0,0,0-.4,2.42A2.55,2.55,0,0,0,100.5,25a.5.5,0,0,0,.82-.22,2.52,2.52,0,0,0,.1-1.22,17.76,17.76,0,0,1,0-2.73.38.38,0,0,0-.64-.26,3.38,3.38,0,0,0-.69,2,3.3,3.3,0,0,0,.3,2.11.39.39,0,0,0,.69-.09,5.56,5.56,0,0,0,.19-1.4,2,2,0,0,1,.33-1.21l-.7-.19-.1,1.73-.07,1.14a1.68,1.68,0,0,0,0,.59l.26-.46c.25.09.31.08.18,0l-.11-.12a1.57,1.57,0,0,1-.19-.26,2.78,2.78,0,0,1-.27-.51,4.15,4.15,0,0,1-.25-1.25,6.23,6.23,0,0,1,.57-2.82c.09-.19,0-.51-.22-.55h-.09a.38.38,0,0,0-.37.62,5.1,5.1,0,0,1,.67,5.3.39.39,0,0,0,.43.56l.11,0c.47-.08.27-.8-.2-.73l-.11,0,.42.55a5.85,5.85,0,0,0-.79-6.21l-.36.63h.09l-.22-.55A6.81,6.81,0,0,0,99.56,23a4.57,4.57,0,0,0,.45,1.53c.18.34.64,1.16,1.12,1a.37.37,0,0,0,.26-.46c0,.14,0,0,0-.06l0-.38.07-1.15.1-1.68c0-.41-.49-.46-.69-.19a2.22,2.22,0,0,0-.43,1.29,6.9,6.9,0,0,1-.17,1.5l.68-.09a2.69,2.69,0,0,1-.21-1.64,2.71,2.71,0,0,1,.48-1.59l-.64-.27a17.75,17.75,0,0,0,0,1.93c0,.3.06.6.08.91,0,.13,0,.27,0,.41a1.9,1.9,0,0,1,0,.25c0,.06-.08.16,0,.12l.28,0a.91.91,0,0,1-.2-.25,1.16,1.16,0,0,1-.12-.45,7.64,7.64,0,0,1,0-1,4.9,4.9,0,0,1,.3-1.94c.19-.44-.45-.82-.65-.38Z" transform="translate(-0.06)"/><ellipse class="cls-4" cx="114.35" cy="20.07" rx="4.5" ry="3.15" transform="translate(-1.71 15.34) rotate(-7.62)"/><path d="M113.48,18.34a5.29,5.29,0,0,0,0,2.24c.1.69.2,1.47.88,1.84A.49.49,0,0,0,115,22a2.45,2.45,0,0,0-.07-1.11,13.11,13.11,0,0,1-.35-2.33.38.38,0,0,0-.7-.19,3.1,3.1,0,0,0-.36,1.94,3,3,0,0,0,.56,1.84.38.38,0,0,0,.64-.27,5,5,0,0,0,0-1.22,1.67,1.67,0,0,1,.13-1.06l-.7-.19.12,1.58.07,1a1.48,1.48,0,0,0,.09.6l.13-.51h0l.29,0c-.1,0-.29-.26-.36-.34a2.85,2.85,0,0,1-.31-.46,3.37,3.37,0,0,1-.34-1,5.42,5.42,0,0,1,.19-2.59.38.38,0,0,0-.36-.48h-.08a.38.38,0,0,0-.27.64,4.55,4.55,0,0,1,1.24,4.68A.38.38,0,0,0,115,23l.1,0c.46-.14.26-.87-.2-.73l-.1,0,.47.46a5.31,5.31,0,0,0-1.44-5.41l-.26.64h.08l-.36-.47a6.1,6.1,0,0,0-.13,3.28,3.79,3.79,0,0,0,.59,1.29c.25.33.72,1,1.19.73a.38.38,0,0,0,.13-.52h0l0,.19-.22-3a.38.38,0,0,0-.7-.19,2.13,2.13,0,0,0-.25,1.26,6,6,0,0,1,0,1.4l.64-.26a2.39,2.39,0,0,1-.34-1.4,2.41,2.41,0,0,1,.25-1.47l-.69-.19a14.06,14.06,0,0,0,.2,1.7c.05.26.11.52.17.78s.06.27.08.4a1.85,1.85,0,0,1,0,.23c0,.07,0,.18.06.1l.19-.05h0l.19.05c-.51-.24-.52-1-.58-1.46a4.16,4.16,0,0,1,0-1.79.37.37,0,0,0-.72-.2Z" transform="translate(-0.06)"/><path class="cls-3" d="M108.38,27.94l2.48-.42-1.38-.79a.43.43,0,0,1,0,.11l0-.3a.11.11,0,0,1,0,.08l0-.3a.23.23,0,0,1,0,.11l.12-.27a1.59,1.59,0,0,1-.13.22l.17-.23a3.41,3.41,0,0,1-.38.38c-.14.13-.27.27-.42.39l.23-.18,0,0,.27-.11h0l.3,0h0l.3,0-.09,0,.27.11c-.49-.23-1-.48-1.47-.73a1.22,1.22,0,0,0-.86-.11,1.09,1.09,0,0,0-.67.52,1.13,1.13,0,0,0-.12.86,1.15,1.15,0,0,0,.52.68l1,.47.46.23a1.61,1.61,0,0,0,.7.2,1.32,1.32,0,0,0,.81-.27,7.48,7.48,0,0,0,.83-.76,1.68,1.68,0,0,0,.5-1.71,1.14,1.14,0,0,0-.51-.67,1.25,1.25,0,0,0-.87-.11l-2.48.42a1.16,1.16,0,0,0-.67.52,1.2,1.2,0,0,0-.12.87,1.16,1.16,0,0,0,.52.67,1.24,1.24,0,0,0,.87.11Z" transform="translate(-0.06)"/><path class="cls-5" d="M118.58,25.69q5.78-1.85,11.65-3.3c1.41-.34.81-2.51-.59-2.17q-5.88,1.46-11.66,3.3c-1.37.44-.78,2.62.6,2.17Z" transform="translate(-0.06)"/><path class="cls-5" d="M118.7,29q4.9-.6,9.83-.86A1.16,1.16,0,0,0,129.66,27a1.13,1.13,0,0,0-1.13-1.12q-4.92.26-9.83.86a1.17,1.17,0,0,0-1.12,1.13A1.12,1.12,0,0,0,118.7,29Z" transform="translate(-0.06)"/><path class="cls-5" d="M118.77,32.26c3,.18,6,.31,9,.37a1.13,1.13,0,0,0,0-2.25c-3-.06-6-.19-9-.37a1.13,1.13,0,0,0-1.12,1.12,1.15,1.15,0,0,0,1.12,1.13Z" transform="translate(-0.06)"/><path class="cls-5" d="M98.85,27.47a71.61,71.61,0,0,0-9-.09,1.16,1.16,0,0,0-1.13,1.13,1.13,1.13,0,0,0,1.13,1.12,71.61,71.61,0,0,1,9,.09A1.13,1.13,0,0,0,100,28.6a1.15,1.15,0,0,0-1.12-1.13Z" transform="translate(-0.06)"/><path class="cls-5" d="M98.54,31l-6,.91a1.13,1.13,0,0,0-.78,1.39,1.15,1.15,0,0,0,1.38.78l6-.91a1.12,1.12,0,0,0,.79-1.38A1.17,1.17,0,0,0,98.54,31Z" transform="translate(-0.06)"/><path class="cls-5" d="M99.81,33.68q-2.5.87-5.09,1.57a1.13,1.13,0,0,0,.6,2.17c1.72-.47,3.41-1,5.09-1.57a1.16,1.16,0,0,0,.79-1.39,1.14,1.14,0,0,0-1.39-.78Z" transform="translate(-0.06)"/><rect class="cls-1" x="154.02" y="0.33" width="97" height="75"/><rect class="cls-1" x="157.02" y="47.33" width="7"/><ellipse class="cls-2" cx="193.41" cy="42.91" rx="36.11" ry="20.16"/><ellipse class="cls-2" cx="223.35" cy="47.46" rx="6.62" ry="26" transform="translate(70.52 217.16) rotate(-60)"/><ellipse class="cls-2" cx="212.35" cy="55.91" rx="6.62" ry="26" transform="translate(51.14 205.08) rotate(-57.54)"/><ellipse class="cls-2" cx="167.35" cy="52.91" rx="26" ry="6.62" transform="translate(2.09 112.19) rotate(-37.28)"/><ellipse class="cls-2" cx="170.35" cy="46.91" rx="26" ry="6.62" transform="translate(-2.99 81.45) rotate(-26.67)"/><path d="M165.85,31.62l-6.8,0a2.36,2.36,0,0,1-1.15-.2,2,2,0,0,1-.81-1.26,10.88,10.88,0,0,1,1.61-8.75c.74-1.15,1.68-2.49,1.15-3.74a3.19,3.19,0,0,0-1-1.23c-3.73-2.94-8.81-3.35-13.55-3.33-4.57,0-9.43.43-13.07,3.19q6.18,0,12.35.13c1.91.05,4.19.35,5,2.06,1.48,3.06-3.37,6.55-1.88,9.6.71,1.43,2.47,1.91,4,2.23q8.61,1.79,17.28,3.34" transform="translate(-0.06)"/><path d="M165.85,30.12l-6.07,0c-.27,0-1,.12-1.15-.06a2.51,2.51,0,0,1-.25-.9,8.08,8.08,0,0,1,0-2.9,13.59,13.59,0,0,1,2.09-4.79c.86-1.43,1.5-3.16.6-4.73-1.57-2.75-5.73-4-8.63-4.59a42.55,42.55,0,0,0-10-.46c-3.86.23-7.8,1-11,3.33a1.51,1.51,0,0,0,.76,2.79q3.94,0,7.91,0c2.14,0,4.55-.21,6.65.36,3.58,1-.25,5.34-.71,7.41a4.55,4.55,0,0,0,1.42,4.56c1.57,1.35,3.81,1.6,5.77,2q7.67,1.56,15.36,2.94c1.89.34,2.7-2.55.8-2.89q-6.13-1.09-12.25-2.31c-1.9-.38-3.83-.72-5.71-1.18-1.09-.26-2.6-.69-2.53-2.06a8.87,8.87,0,0,1,1.29-3.16,8.43,8.43,0,0,0,1.15-3.71c0-3.11-2.8-4.49-5.49-4.78-2.14-.23-4.34-.16-6.49-.19q-3.58,0-7.17,0l.76,2.8c3.57-2.62,8-3,12.31-3,4,0,8.35.21,11.83,2.44.38.24,1.06.59,1.27,1,.29.57,0,1-.27,1.53-.54,1-1.2,1.88-1.66,2.92a12.29,12.29,0,0,0-1.14,6c.17,2,.75,4.17,3,4.53a22.86,22.86,0,0,0,3.7,0l3.89,0a1.5,1.5,0,0,0,0-3Z" transform="translate(-0.06)"/><path d="M155.37,13.64l-.18.06a1.14,1.14,0,0,0-.51.27,1.31,1.31,0,0,0-.39.42,1,1,0,0,0-.17.56,1.11,1.11,0,0,0,0,.6l.15.36a1.61,1.61,0,0,0,.54.53l.36.16a1.55,1.55,0,0,0,.8,0l.18-.06a1.26,1.26,0,0,0,.51-.27,1.18,1.18,0,0,0,.38-.42,1.12,1.12,0,0,0,.18-.56,1,1,0,0,0,0-.6l-.15-.36a1.45,1.45,0,0,0-.54-.53l-.35-.16a1.55,1.55,0,0,0-.8,0Z" transform="translate(-0.06)"/><path class="cls-3" d="M212.13,14a22.38,22.38,0,0,1,0-11.32,1,1,0,0,1,.36-.64,1,1,0,0,1,.7,0,19.89,19.89,0,0,1,3.19,1.06c5,2,9.93,4.2,14.72,6.66.1.05.22.13.21.25s-.25.08-.19,0" transform="translate(-0.06)"/><path d="M213.58,13.62a21.23,21.23,0,0,1-.68-5.44,23.07,23.07,0,0,1,.17-2.63c.07-.47.16-.94.25-1.41a6.52,6.52,0,0,1,.23-1l-.66.39c-.2-.06-.13,0,.23,0l.65.18.95.32c.77.28,1.53.59,2.28.89,1.53.62,3.05,1.25,4.55,1.92s3,1.35,4.51,2.07a33.26,33.26,0,0,1,4.43,2.21l-.69-.89.06.14.39-1.45-.07.06,1.06-.44h-.1l1.45,1.11,0-.08c-.47-1.87-3.36-1.08-2.89.8l0,.07a1.6,1.6,0,0,0,2.67.61,1.48,1.48,0,0,0,.39-1.46c-.59-1.41-2.4-1.91-3.69-2.54Q226.84,6,224.58,4.94c-2.88-1.3-5.79-2.57-8.74-3.66C214.65.83,213,.07,211.74.77s-1.37,2.72-1.56,4a24.38,24.38,0,0,0,.51,9.66,1.5,1.5,0,0,0,2.89-.79Z" transform="translate(-0.06)"/><path d="M231.53,7a24.65,24.65,0,0,1,5.21-5.53,75.47,75.47,0,0,1,6.06,10.16" transform="translate(-0.06)"/><path d="M232.82,7.77a24,24,0,0,1,5-5.23l-2.35-.31a77.76,77.76,0,0,1,6.05,10.16,1.51,1.51,0,0,0,2.05.54,1.53,1.53,0,0,0,.54-2A77.1,77.1,0,0,0,238,.72a1.54,1.54,0,0,0-2.36-.3,26.49,26.49,0,0,0-5.45,5.83,1.51,1.51,0,0,0,.54,2.05,1.53,1.53,0,0,0,2-.53Z" transform="translate(-0.06)"/><ellipse class="cls-2" cx="230.02" cy="25.33" rx="22.5" ry="18.5"/><ellipse class="cls-4" cx="231.52" cy="22.33" rx="5" ry="3.5"/><path d="M230.93,20.28a5.71,5.71,0,0,0-.4,2.42,2.51,2.51,0,0,0,.65,2.16.5.5,0,0,0,.81-.23,2.49,2.49,0,0,0,.11-1.21,15.56,15.56,0,0,1,0-2.73.38.38,0,0,0-.64-.27,3.39,3.39,0,0,0-.69,2,3.22,3.22,0,0,0,.3,2.1.38.38,0,0,0,.69-.09,6,6,0,0,0,.19-1.39,1.94,1.94,0,0,1,.33-1.22l-.7-.19-.1,1.74-.07,1.13a1.73,1.73,0,0,0,0,.6l.26-.46c.25.08.31.08.18,0l-.11-.12a1.64,1.64,0,0,1-.2-.26,3.06,3.06,0,0,1-.26-.51,3.82,3.82,0,0,1-.26-1.25,6.19,6.19,0,0,1,.58-2.81.39.39,0,0,0-.22-.56h-.09a.38.38,0,0,0-.37.63,5.1,5.1,0,0,1,.67,5.3.38.38,0,0,0,.42.55l.11,0c.48-.07.28-.8-.2-.72h-.11l.43.56a5.89,5.89,0,0,0-.79-6.21l-.36.62.09,0-.23-.55a6.87,6.87,0,0,0-.65,3.54,4.35,4.35,0,0,0,.45,1.53c.17.35.64,1.17,1.12,1a.37.37,0,0,0,.26-.46c.05.14,0,0,0-.06l0-.38.07-1.15.1-1.68c0-.4-.5-.46-.7-.18a2.25,2.25,0,0,0-.42,1.28,6.84,6.84,0,0,1-.18,1.5l.69-.09a2.59,2.59,0,0,1-.21-1.63,2.74,2.74,0,0,1,.48-1.6l-.64-.26a13.67,13.67,0,0,0,0,1.92c0,.3.05.61.08.91a2.84,2.84,0,0,1,0,.41,2.28,2.28,0,0,1,0,.26c0,.06-.08.16,0,.11l.29,0a1,1,0,0,1-.2-.26,1.17,1.17,0,0,1-.13-.44c0-.32,0-.65,0-1a4.77,4.77,0,0,1,.31-1.94c.19-.44-.46-.82-.65-.38Z" transform="translate(-0.06)"/><ellipse class="cls-4" cx="245.03" cy="19.92" rx="4.5" ry="3.15" transform="translate(-0.54 32.67) rotate(-7.62)"/><path d="M244.15,18.2a5.24,5.24,0,0,0,0,2.23c.1.69.19,1.47.88,1.84.35.19.65,0,.73-.39a2.6,2.6,0,0,0-.07-1.11,14.11,14.11,0,0,1-.36-2.33.38.38,0,0,0-.7-.19,3.1,3.1,0,0,0-.35,1.94A2.91,2.91,0,0,0,244.8,22a.38.38,0,0,0,.64-.27,5,5,0,0,0,0-1.22,1.68,1.68,0,0,1,.13-1.06l-.7-.19.11,1.58.08,1a1.74,1.74,0,0,0,.08.6l.14-.52h0l.29,0c-.09,0-.28-.27-.35-.35a2.47,2.47,0,0,1-.31-.46,3.69,3.69,0,0,1-.35-1,5.55,5.55,0,0,1,.2-2.59.38.38,0,0,0-.36-.47h-.09a.38.38,0,0,0-.26.64,4.59,4.59,0,0,1,1.24,4.69.38.38,0,0,0,.46.46l.1,0a.37.37,0,0,0-.2-.72l-.1,0,.46.47a5.32,5.32,0,0,0-1.43-5.42l-.27.64h.09l-.37-.48a6.19,6.19,0,0,0-.12,3.28,3.61,3.61,0,0,0,.59,1.29c.24.33.72,1,1.19.73a.38.38,0,0,0,.13-.51v0l.05.19-.22-3a.38.38,0,0,0-.7-.19,2.14,2.14,0,0,0-.25,1.26,6.56,6.56,0,0,1,0,1.4l.64-.26c-.32-.32-.31-1-.35-1.39a2.36,2.36,0,0,1,.26-1.48l-.7-.19a13.85,13.85,0,0,0,.21,1.7c0,.26.1.52.16.78s.07.27.09.41a1.69,1.69,0,0,1,0,.23c0,.06,0,.17.06.09l.19,0h0l.19.06c-.52-.25-.52-1-.59-1.46a4.31,4.31,0,0,1,.06-1.79.38.38,0,0,0-.73-.2Z" transform="translate(-0.06)"/><path class="cls-3" d="M239.06,27.8l2.48-.43-1.39-.79a.24.24,0,0,1,0,.12l0-.3v.07l0-.3,0,.12.11-.27a.8.8,0,0,1-.13.21l.18-.23a3.41,3.41,0,0,1-.38.38c-.14.13-.27.27-.42.39l.22-.18,0,0,.27-.11h0l.3,0h0l.3,0-.09,0,.27.11c-.5-.23-1-.48-1.47-.72a1.11,1.11,0,0,0-1.54.4,1.13,1.13,0,0,0,.41,1.54l.95.47.47.23a1.58,1.58,0,0,0,.7.21,1.34,1.34,0,0,0,.8-.28,7.58,7.58,0,0,0,.84-.76,1.7,1.7,0,0,0,.5-1.71,1.19,1.19,0,0,0-.52-.67,1.22,1.22,0,0,0-.86-.11l-2.48.43a1.1,1.1,0,0,0-.68.51,1.15,1.15,0,0,0-.11.87,1.13,1.13,0,0,0,.52.67,1.3,1.3,0,0,0,.87.12Z" transform="translate(-0.06)"/><path class="cls-5" d="M249.26,25.54q5.76-1.84,11.65-3.29a1.13,1.13,0,0,0-.6-2.17q-5.88,1.44-11.65,3.29c-1.37.45-.79,2.62.6,2.17Z" transform="translate(-0.06)"/><path class="cls-5" d="M249.38,28.85c3.27-.41,6.54-.7,9.83-.87a1.16,1.16,0,0,0,1.13-1.13,1.14,1.14,0,0,0-1.13-1.12c-3.29.17-6.56.46-9.83.87a1.15,1.15,0,0,0-1.12,1.12,1.13,1.13,0,0,0,1.12,1.13Z" transform="translate(-0.06)"/><path class="cls-5" d="M249.45,32.11q4.52.27,9,.38a1.13,1.13,0,0,0,0-2.25q-4.52-.1-9-.38a1.13,1.13,0,0,0,0,2.25Z" transform="translate(-0.06)"/><path class="cls-5" d="M229.52,27.33a67.89,67.89,0,0,0-9-.09,1.13,1.13,0,1,0,0,2.25,67.89,67.89,0,0,1,9,.09,1.13,1.13,0,1,0,0-2.25Z" transform="translate(-0.06)"/><path class="cls-5" d="M229.22,30.84l-6,.92a1.12,1.12,0,0,0-.79,1.38,1.17,1.17,0,0,0,1.39.79l6-.92a1.11,1.11,0,0,0,.78-1.38,1.15,1.15,0,0,0-1.38-.79Z" transform="translate(-0.06)"/><path class="cls-5" d="M230.49,33.53q-2.52.87-5.09,1.58a1.12,1.12,0,0,0-.78,1.38,1.15,1.15,0,0,0,1.38.79q2.56-.7,5.09-1.58a1.15,1.15,0,0,0,.78-1.39,1.13,1.13,0,0,0-1.38-.78Z" transform="translate(-0.06)"/><rect class="cls-1" x="284.02" y="1.33" width="97" height="75"/><rect class="cls-1" x="287.02" y="48.33" width="7"/><ellipse class="cls-2" cx="323.41" cy="43.91" rx="36.11" ry="20.16"/><ellipse class="cls-2" cx="353.35" cy="48.46" rx="6.62" ry="26" transform="translate(61.1 252.97) rotate(-42.8)"/><ellipse class="cls-2" cx="342.35" cy="56.91" rx="6.62" ry="26" transform="translate(74.4 277.55) rotate(-48.91)"/><ellipse class="cls-2" cx="297.35" cy="53.91" rx="26" ry="6.62" transform="translate(101.92 284.47) rotate(-60)"/><ellipse class="cls-2" cx="300.35" cy="47.91" rx="26" ry="6.62" transform="translate(66.79 242.81) rotate(-48.91)"/><path d="M295.85,32.62l-6.8,0a2.36,2.36,0,0,1-1.15-.2,2,2,0,0,1-.81-1.26,10.88,10.88,0,0,1,1.61-8.75c.74-1.15,1.68-2.49,1.15-3.74a3.19,3.19,0,0,0-1.05-1.23c-3.73-2.94-8.81-3.35-13.55-3.33-4.57,0-9.43.43-13.07,3.19q6.18,0,12.35.13c1.91.05,4.19.35,5,2.06,1.48,3.06-3.37,6.55-1.88,9.6.71,1.43,2.47,1.91,4,2.23q8.61,1.78,17.28,3.34" transform="translate(-0.06)"/><path d="M295.85,31.12l-6.07,0c-.27,0-1,.12-1.15-.06a2.51,2.51,0,0,1-.25-.9,8.08,8.08,0,0,1,0-2.9,13.59,13.59,0,0,1,2.09-4.79c.86-1.43,1.5-3.16.6-4.73-1.57-2.75-5.73-4-8.63-4.59a42.55,42.55,0,0,0-10-.46c-3.86.23-7.8,1-11,3.33a1.51,1.51,0,0,0,.76,2.79q3.94,0,7.91,0c2.14,0,4.55-.21,6.65.36,3.58,1-.25,5.34-.71,7.41a4.55,4.55,0,0,0,1.42,4.56c1.57,1.35,3.81,1.6,5.77,2q7.66,1.56,15.36,2.94c1.89.34,2.7-2.55.8-2.89q-6.13-1.09-12.25-2.31c-1.9-.38-3.83-.72-5.71-1.18-1.09-.26-2.6-.69-2.53-2.06a8.87,8.87,0,0,1,1.29-3.16,8.43,8.43,0,0,0,1.15-3.71c0-3.11-2.8-4.49-5.49-4.78-2.14-.23-4.34-.16-6.49-.19q-3.59,0-7.17,0l.76,2.8c3.57-2.62,8-3,12.31-3,4,0,8.35.21,11.83,2.44.38.24,1.06.59,1.27,1,.29.57,0,1-.27,1.53-.54,1-1.2,1.88-1.66,2.92a12.29,12.29,0,0,0-1.14,6c.17,2,.75,4.17,3,4.53a22.86,22.86,0,0,0,3.7,0l3.89,0a1.5,1.5,0,0,0,0-3Z" transform="translate(-0.06)"/><path d="M285.37,14.64l-.18.06a1.14,1.14,0,0,0-.51.27,1.31,1.31,0,0,0-.39.42,1,1,0,0,0-.17.56,1.11,1.11,0,0,0,0,.6l.15.36a1.61,1.61,0,0,0,.54.53l.36.16a1.55,1.55,0,0,0,.8,0l.18-.06a1.26,1.26,0,0,0,.51-.27,1.18,1.18,0,0,0,.38-.42,1.12,1.12,0,0,0,.18-.56,1,1,0,0,0,0-.6l-.15-.36a1.45,1.45,0,0,0-.54-.53l-.35-.16a1.55,1.55,0,0,0-.8,0Z" transform="translate(-0.06)"/><path class="cls-3" d="M342.13,15a22.38,22.38,0,0,1,0-11.32,1,1,0,0,1,.36-.64,1,1,0,0,1,.7,0,19.89,19.89,0,0,1,3.19,1.06c5,2,9.93,4.2,14.72,6.66.1.05.22.13.21.25s-.25.08-.19,0" transform="translate(-0.06)"/><path d="M343.58,14.62a21.23,21.23,0,0,1-.68-5.44,23.07,23.07,0,0,1,.17-2.63c.07-.47.16-.94.25-1.41a6.52,6.52,0,0,1,.23-1l-.66.39c-.2-.06-.13,0,.23,0l.65.18,1,.32c.77.28,1.53.59,2.28.89,1.53.62,3.05,1.25,4.55,1.92s3,1.35,4.51,2.07a33.26,33.26,0,0,1,4.43,2.21l-.69-.89.06.14.39-1.45-.07.06,1.06-.44h-.1l1.45,1.11,0-.08c-.47-1.87-3.36-1.08-2.89.8l0,.07a1.6,1.6,0,0,0,2.67.61,1.48,1.48,0,0,0,.39-1.46c-.59-1.41-2.4-1.91-3.69-2.54q-2.24-1.1-4.49-2.12c-2.88-1.3-5.79-2.57-8.74-3.66-1.19-.45-2.88-1.21-4.1-.51s-1.37,2.72-1.56,4a24.38,24.38,0,0,0,.51,9.66,1.5,1.5,0,0,0,2.89-.79Z" transform="translate(-0.06)"/><path d="M361.53,8a24.65,24.65,0,0,1,5.21-5.53,75.47,75.47,0,0,1,6.06,10.16" transform="translate(-0.06)"/><path d="M362.82,8.77a24,24,0,0,1,5-5.23l-2.35-.31a77.76,77.76,0,0,1,6.05,10.16,1.51,1.51,0,0,0,2.05.54,1.53,1.53,0,0,0,.54-2,77.1,77.1,0,0,0-6-10.16,1.54,1.54,0,0,0-2.36-.3,26.49,26.49,0,0,0-5.45,5.83,1.51,1.51,0,0,0,.54,2.05,1.53,1.53,0,0,0,2.05-.53Z" transform="translate(-0.06)"/><ellipse class="cls-2" cx="360.02" cy="26.33" rx="22.5" ry="18.5"/><ellipse class="cls-4" cx="361.52" cy="23.33" rx="5" ry="3.5"/><path d="M360.93,21.28a5.71,5.71,0,0,0-.4,2.42,2.51,2.51,0,0,0,.65,2.16.5.5,0,0,0,.81-.23,2.49,2.49,0,0,0,.11-1.21,15.56,15.56,0,0,1-.05-2.73.38.38,0,0,0-.64-.27,3.39,3.39,0,0,0-.69,2,3.22,3.22,0,0,0,.3,2.1.38.38,0,0,0,.69-.09,6,6,0,0,0,.19-1.39,1.94,1.94,0,0,1,.33-1.22l-.7-.19-.1,1.74-.07,1.13a1.73,1.73,0,0,0,0,.6l.26-.46c.25.08.31.08.18,0l-.11-.12a1.64,1.64,0,0,1-.2-.26,3.06,3.06,0,0,1-.26-.51,3.82,3.82,0,0,1-.26-1.25,6.19,6.19,0,0,1,.58-2.81.39.39,0,0,0-.22-.56h-.09a.38.38,0,0,0-.37.63,5.1,5.1,0,0,1,.67,5.3.38.38,0,0,0,.42.55l.11,0c.48-.07.28-.8-.2-.72h-.11l.43.56a5.89,5.89,0,0,0-.79-6.21l-.36.62.09,0-.23-.55a6.87,6.87,0,0,0-.65,3.54,4.35,4.35,0,0,0,.45,1.53c.17.35.64,1.17,1.12,1a.37.37,0,0,0,.26-.46c.05.14,0,0,0-.06l0-.38.07-1.15.1-1.68c0-.4-.5-.46-.7-.18a2.25,2.25,0,0,0-.42,1.28,6.84,6.84,0,0,1-.18,1.5l.69-.09a2.59,2.59,0,0,1-.21-1.63,2.74,2.74,0,0,1,.48-1.6l-.64-.26a13.67,13.67,0,0,0,0,1.92c0,.3.05.61.08.91a2.84,2.84,0,0,1,0,.41,2.28,2.28,0,0,1,0,.26c0,.06-.08.16,0,.11l.29,0a1,1,0,0,1-.2-.26,1.17,1.17,0,0,1-.13-.44c0-.32,0-.65,0-1a4.77,4.77,0,0,1,.31-1.94c.19-.44-.46-.82-.65-.38Z" transform="translate(-0.06)"/><ellipse class="cls-4" cx="375.03" cy="20.92" rx="4.5" ry="3.15" transform="translate(0.48 49.92) rotate(-7.62)"/><path d="M374.15,19.2a5.24,5.24,0,0,0,0,2.23c.1.69.19,1.47.88,1.84.35.19.65,0,.73-.39a2.6,2.6,0,0,0-.07-1.11,14.11,14.11,0,0,1-.36-2.33.38.38,0,0,0-.7-.19,3.1,3.1,0,0,0-.35,1.94A2.91,2.91,0,0,0,374.8,23a.38.38,0,0,0,.64-.27,5,5,0,0,0,0-1.22,1.68,1.68,0,0,1,.13-1.06l-.7-.19.11,1.58.08,1a1.74,1.74,0,0,0,.08.6l.14-.52h0l.29,0c-.09,0-.28-.27-.35-.35a2.47,2.47,0,0,1-.31-.46,3.69,3.69,0,0,1-.35-1,5.55,5.55,0,0,1,.2-2.59.38.38,0,0,0-.36-.47h-.09a.38.38,0,0,0-.26.64,4.59,4.59,0,0,1,1.24,4.69.38.38,0,0,0,.46.46l.1,0a.37.37,0,0,0-.2-.72l-.1,0,.46.47a5.32,5.32,0,0,0-1.43-5.42l-.27.64h.09l-.37-.48a6.19,6.19,0,0,0-.12,3.28,3.61,3.61,0,0,0,.59,1.29c.24.33.72,1,1.19.73a.38.38,0,0,0,.13-.51v0l0,.19-.22-3a.38.38,0,0,0-.7-.19,2.14,2.14,0,0,0-.25,1.26,6.56,6.56,0,0,1,0,1.4l.64-.26c-.32-.32-.31-1-.35-1.39a2.36,2.36,0,0,1,.26-1.48l-.7-.19a13.85,13.85,0,0,0,.21,1.7c0,.26.1.52.16.78s.07.27.09.41a1.69,1.69,0,0,1,0,.23c0,.06-.05.17.06.09l.19,0h0l.19.06c-.52-.25-.52-1-.59-1.46a4.31,4.31,0,0,1,.06-1.79.38.38,0,0,0-.73-.2Z" transform="translate(-0.06)"/><path class="cls-3" d="M369.06,28.8l2.48-.43-1.39-.79a.24.24,0,0,1,0,.12l0-.3v.07l0-.3,0,.12.11-.27a.8.8,0,0,1-.13.21l.18-.23a3.41,3.41,0,0,1-.38.38c-.14.13-.27.27-.42.39l.22-.18,0,0,.27-.11h0l.3,0h-.05l.3,0-.09,0,.27.11c-.5-.23-1-.48-1.47-.72a1.11,1.11,0,0,0-1.54.4,1.13,1.13,0,0,0,.41,1.54l.95.47.47.23a1.58,1.58,0,0,0,.7.21,1.34,1.34,0,0,0,.8-.28,7.58,7.58,0,0,0,.84-.76,1.7,1.7,0,0,0,.5-1.71,1.19,1.19,0,0,0-.52-.67,1.22,1.22,0,0,0-.86-.11l-2.48.43a1.1,1.1,0,0,0-.68.51,1.15,1.15,0,0,0-.11.87,1.13,1.13,0,0,0,.52.67,1.3,1.3,0,0,0,.87.12Z" transform="translate(-0.06)"/><path class="cls-5" d="M379.26,26.54q5.76-1.84,11.65-3.29a1.13,1.13,0,0,0-.6-2.17q-5.88,1.44-11.65,3.29c-1.37.45-.79,2.62.6,2.17Z" transform="translate(-0.06)"/><path class="cls-5" d="M379.38,29.85c3.27-.41,6.54-.7,9.83-.87a1.16,1.16,0,0,0,1.13-1.13,1.14,1.14,0,0,0-1.13-1.12c-3.29.17-6.56.46-9.83.87a1.15,1.15,0,0,0-1.12,1.12,1.13,1.13,0,0,0,1.12,1.13Z" transform="translate(-0.06)"/><path class="cls-5" d="M379.45,33.11q4.51.27,9,.38a1.13,1.13,0,0,0,0-2.25q-4.51-.1-9-.38a1.13,1.13,0,0,0,0,2.25Z" transform="translate(-0.06)"/><path class="cls-5" d="M359.52,28.33a67.89,67.89,0,0,0-9-.09,1.13,1.13,0,1,0,0,2.25,67.89,67.89,0,0,1,9,.09,1.13,1.13,0,1,0,0-2.25Z" transform="translate(-0.06)"/><path class="cls-5" d="M359.22,31.84l-6,.92a1.12,1.12,0,0,0-.79,1.38,1.17,1.17,0,0,0,1.39.79l6-.92a1.11,1.11,0,0,0,.78-1.38,1.15,1.15,0,0,0-1.38-.79Z" transform="translate(-0.06)"/><path class="cls-5" d="M360.49,34.53q-2.52.87-5.09,1.58a1.12,1.12,0,0,0-.78,1.38,1.15,1.15,0,0,0,1.38.79q2.56-.7,5.09-1.58a1.15,1.15,0,0,0,.78-1.39,1.13,1.13,0,0,0-1.38-.78Z" transform="translate(-0.06)"/></g></g></svg>