<svg xmlns="http://www.w3.org/2000/svg" viewBox="0 0 292.71 132.14"><defs><style>.cls-1{fill:#666;}</style></defs><g id="Capa_2" data-name="Capa 2"><g id="Capa_1-2" data-name="Capa 1"><path class="cls-1" d="M78.75,125.43c-23,.13-46.18-3.11-62.75-19.05-8.29-8-13.89-21.62-6.82-30.7,3.08-4,7.91-6.1,12.53-8.08C43.46,58.32,66,48.65,81.8,31c5.36-6,9.89-12.84,16.39-17.54,11.62-8.4,27.24-8.38,41.44-6.41a190.11,190.11,0,0,1,55.06,16.42c13.48,6.37,26.2,14.31,39.9,20.2,13,5.59,27.18,9.44,38.22,18.36s18,25.19,11,37.53c-5.66,10-17.95,13.75-29.16,16.15-58.42,12.51-118.82,11-178.55,9.35"/><path class="cls-1" d="M78.75,119.43c-18.49,0-38.33-1.8-53.68-13.17C18.5,101.39,11.27,93.37,12,84.53c.73-9.13,13.45-12,20.36-15C50.14,61.79,68,53.1,82.06,39.42,88.93,32.74,94,23.8,101.88,18.23c7.7-5.42,17.34-6.49,26.51-6.17,21,.74,42.66,7.11,61.64,15.86,10.15,4.68,19.81,10.31,29.75,15.38C229,48,238.64,51.73,248.29,55.56c14.48,5.76,36,17.49,32,36.67-1.83,8.64-10.29,13-18,15.38-10,3.13-20.61,4.75-31,6.38C180,122,127.78,120.49,76.09,119.1c-7.72-.21-7.72,11.79,0,12,51.89,1.4,104,2.63,155.54-5.1,11.73-1.76,23.92-3.47,35.2-7.27,9.24-3.1,18.3-8.31,22.81-17.34,9.44-18.92-4.43-39.48-20.49-49.13-9.36-5.63-19.89-8.94-29.94-13.08-11.75-4.83-22.7-11.32-34-17.13A199.47,199.47,0,0,0,136.45.69C126-.51,114.86-.44,104.88,3.29c-10.75,4-17.54,11.9-24.7,20.46C65.6,41.17,45.24,51,24.76,59.82c-10.23,4.41-22,8.73-24.34,21.1-2.06,11,3.66,22.17,11.34,29.71,17.65,17.31,43.35,20.85,67,20.8,7.72,0,7.74-12,0-12Z"/></g></g></svg>