<svg xmlns="http://www.w3.org/2000/svg" viewBox="0 0 321.34 183.37"><defs><style>.cls-1{fill:#666;}</style></defs><g id="Capa_2" data-name="Capa 2"><g id="Capa_1-2" data-name="Capa 1"><path class="cls-1" d="M29.18,105c3.54-23.49,9-50,29.35-62.3,12.89-7.79,28.85-7.84,43.38-11.82,24-6.57,45-24.18,69.82-24.83,8.54-.23,17,1.62,25.15,4.19s15.85,5.84,22.47,11c8.07,6.28,13.86,15,20,23.18a293.07,293.07,0,0,0,52.83,54.7c6,4.77,12.24,9.39,16.9,15.47s7.57,14,5.76,21.45c-2.9,12-16.06,18-27.82,21.59C230,175.11,169.55,176.2,110,177.15c-29,.47-58.67.84-86.22-8.28-4.09-1.35-8.3-3-11.07-6.34-2.44-2.9-3.47-6.7-4.34-10.39-2-8.63-3.54-17.71-1.29-26.29s9.15-16.5,18-17.32"/><path class="cls-1" d="M35,106.56c2.84-18.71,6.18-40.72,20.73-54.29C64.26,44.29,75.85,42,87,40c11.58-2.08,22.41-4.84,33.22-9.56C141.82,21,161.9,8.06,186.45,13.58c11.62,2.61,23.71,6.87,32.51,15.19s15.11,18.91,22.59,28.28c15.56,19.48,33.61,35.63,52.78,51.4,8,6.61,19.07,17.39,13.66,28.88-4,8.56-15.16,12.19-23.51,14.75-50.94,15.57-104.65,17.79-157.54,18.79-29,.54-58.81,2.31-87.34-3.91-6.33-1.38-13.81-2.71-19.46-6.06s-6.45-11.34-7.45-17.33c-1.89-11.42-.12-27.34,14-29.26,3.23-.44,4.93-4.55,4.19-7.38-.92-3.47-4.19-4.62-7.38-4.19C11.78,104.33,3.19,114.87.88,126c-1.44,6.91-.94,13.88.24,20.79,1.1,6.4,2.41,13.51,6.4,18.8,7.58,10,24.63,12.4,36.12,14.38a270.58,270.58,0,0,0,44,3.39c29.4.21,58.94-.49,88.29-2.1,29.89-1.64,59.84-4.81,89-11.55,20.14-4.64,56.54-11.29,56.33-38.51-.11-13.66-9.79-24.17-19.8-32.24a368.59,368.59,0,0,1-30.25-26.56A287,287,0,0,1,243.47,40C235.41,29,227.53,18.16,215.39,11.44a93,93,0,0,0-40-11.4c-13.14-.51-25.62,3.71-37.48,9-13,5.74-25.37,13-39.22,16.49-14.49,3.7-30.07,4.06-43.19,12C32.92,51.13,27.06,79.25,23.39,103.37c-1.15,7.56,10.42,10.81,11.58,3.19Z"/></g></g></svg>