<svg xmlns="http://www.w3.org/2000/svg" viewBox="0 0 182.06 109.04"><defs><style>.cls-1{fill:#666;}</style></defs><g id="Capa_2" data-name="Capa 2"><g id="Capa_1-2" data-name="Capa 1"><path class="cls-1" d="M175.07,90.66c1.31-15,3-34.29-7.69-44.93C155.08,33.5,134.73,35,119.58,26.49c-5.48-3.06-10.16-7.36-15.38-10.85-12.07-8-27.27-11.52-41.51-8.75s-27.25,12-34,24.78C25.42,37.87,23.6,44.79,20,50.78,14.91,59.13,6.24,66.14,5.73,75.89c-.43,8.16,5.44,15.63,12.66,19.47s15.59,4.77,23.74,5.46a620.08,620.08,0,0,0,117.43-1.19c5.71-.6,12.37-1.94,14.81-7.14"/><path class="cls-1" d="M181.07,90.66c1.16-13.4,2.43-27.82-3.36-40.4-5.92-12.88-19.42-18.21-32.28-21.53-6.57-1.7-13.41-3-19.64-5.82-7.39-3.3-13.17-9.1-20-13.36A62.36,62.36,0,0,0,60.36,1.26a55.77,55.77,0,0,0-35,24.15C21.07,32.16,19.21,40.08,15.23,47c-3.6,6.25-9,11.28-12.33,17.72-6.87,13.46-1,28.18,11.84,35.47,7.28,4.16,15.66,5.49,23.89,6.32,9.29.94,18.63,1.49,27.95,1.91a621.46,621.46,0,0,0,62.7-.34c10.32-.58,20.67-1.3,30.94-2.51,7.61-.91,15.32-2.88,19.33-10,3.77-6.75-6.59-12.81-10.36-6.06-2.64,4.71-10.85,4.32-15.48,4.76Q141,95.44,128.3,96.13q-23.49,1.28-47,.77c-15.35-.33-31.08-.63-46.3-2.82C23.9,92.49,6.41,85,13.26,70.77c2.35-4.89,6.25-8.92,9.41-13.28,4.38-6.05,6.63-12.9,9.67-19.64A43.51,43.51,0,0,1,58.48,14.18C71.74,9.88,86.39,12,98.33,19c5.42,3.18,10.06,7.43,15.3,10.85a64.76,64.76,0,0,0,17.9,7.65c11.31,3.19,26.86,4.54,34,15.31,7,10.6,4.61,25.92,3.58,37.81-.66,7.69,11.34,7.65,12,0Z"/></g></g></svg>