<svg xmlns="http://www.w3.org/2000/svg" viewBox="0 0 377.64 131.35"><defs><style>.cls-1{fill:#666;}</style></defs><g id="Capa_2" data-name="Capa 2"><g id="Capa_1-2" data-name="Capa 1"><path class="cls-1" d="M31.88,119.1c-8.44-8.9-16.46-18.49-21.37-29.73S4.09,64.94,8.76,53.59C17.2,33.15,42.13,25.11,64.23,24.36s44.92,3.19,65.94-3.67c10.53-3.44,20.1-9.46,30.76-12.44,29.29-8.2,59.22,7.64,86.52,21.06,7.44,3.66,15.13,7.22,23.38,8,15.64,1.52,30.61-7,46.31-7.63,16.05-.63,31.88,7.55,41.76,20.22s14,29.37,12.42,45.36a19.9,19.9,0,0,1-1.51,6.62c-2.33,5-7.76,7.64-12.9,9.61-31.43,12-65.94,12.4-99.6,12.61l-189,1.21c-9.24,0-18.53.11-27.64-1.42-4-.66-4.77-3.15-8.59-4.4"/><path class="cls-1" d="M36.13,114.86C20.52,98.29,1.21,71.08,18.37,48.79c13.8-17.92,40.17-18.92,60.68-18.41,13.45.34,26.91,1,40.27-1,13.84-2.14,25.29-9,38.23-13.72,27.09-9.87,54.59,3,78.77,14.85,12,5.89,24.23,12.91,38,13,13.27.1,25.46-5.65,38.43-7.43,25.47-3.47,46.5,16.11,51.62,40a60.89,60.89,0,0,1,1.11,17.61c-.58,7-3.89,9.54-10.14,12-13,5.2-27.12,8.13-41,9.82-28.08,3.42-56.64,2.57-84.87,2.75L128,119l-51.73.33c-8.19,0-16.41.27-24.59-.19-3.23-.19-7.78,0-10.76-1.29-2.54-1.1-4.59-3-7.24-4.07-7.17-2.87-10.29,8.73-3.19,11.57,2.21.88,3.86,2.71,6.11,3.61,3,1.19,6.37,1.41,9.56,1.74,8,.85,16.1.71,24.14.66L120,131l99.48-.64c31.51-.2,63.48,1,94.82-2.81,15-1.82,30-4.74,44.18-10.25,5.24-2,10.46-4.43,14.14-8.85,4.51-5.43,5-12.8,5-19.59.05-26.89-15-52.47-40.7-62-13.42-4.94-26.84-3.07-40.32.5-6.75,1.78-13.57,3.89-20.6,4.1-7.94.24-15.26-2.46-22.34-5.81C227.45,13.27,199.76-3.09,169.56.5c-14.89,1.77-27,9.85-41,14.4-14.79,4.82-30.49,4-45.82,3.59-26.13-.76-57.61.88-74.61,24.06-8.88,12.11-10,28-5.75,42.11,4.55,15,14.65,27.44,25.24,38.68,5.31,5.63,13.78-2.86,8.49-8.48Z"/></g></g></svg>