<svg xmlns="http://www.w3.org/2000/svg" viewBox="0 0 242.68 274.97"><defs><style>.cls-1{fill:#666;}</style></defs><g id="Capa_2" data-name="Capa 2"><g id="Capa_1-2" data-name="Capa 1"><path class="cls-1" d="M29.2,269.3c-7-9.21-14-18.53-18.6-29.16S4.23,217.28,8,206.35c1.73-5,4.56-9.56,5.85-14.68,1.45-5.79.82-11.88,1.06-17.85.69-17.53,8.85-33.79,16.83-49.41L49,90.58c6.29-12.31,12.65-24.81,15.51-38.34,1.38-6.52,2-13.46,5.67-19,3.47-5.3,9.18-8.62,14.68-11.75C94.47,16,104.18,10.52,114.83,7.77s22.55-2.47,32,3.2c9.25,5.56,14.92,15.39,20.14,24.83,5.41,9.79,10.87,19.94,12.09,31.05,1.82,16.51-5.82,34,.3,49.39,6.38,16.09,25.11,23.45,35.4,37.37,8,10.79,10.27,24.64,12.33,37.9l9,58.09c.71,4.57,1.3,9.71-1.48,13.41-3.1,4.15-9,4.69-14.18,4.88C157.2,270.2,92.76,266.66,29.51,269"/><path class="cls-1" d="M34.38,266.27c-7.63-10-15.82-20.47-19.84-32.6a43.83,43.83,0,0,1-2.36-18.92c.79-6.54,4.2-12.06,6.41-18.14,2.26-6.24,2.21-12.66,2.26-19.2a71.21,71.21,0,0,1,2.75-19.13c3.65-12.73,10.07-24.45,16.06-36.18,12.41-24.27,26.52-47.9,32-74.86,1.26-6.26,3-11.5,8.22-15.55,4.89-3.78,10.7-6.61,16.12-9.54,11.26-6.09,23.9-11.6,37-9.76,12.37,1.73,19.81,10.87,25.77,21,6.28,10.73,13.44,22.49,14.48,35.15s-3.2,25.17-2.1,37.85c1,11.17,6,20.42,14,28.12,7.3,7,16,12.5,22.76,20.13,8.11,9.2,10.63,21.7,12.58,33.44,2.31,13.9,4.35,27.86,6.51,41.78,1.1,7.09,2.39,14.19,3.31,21.3.29,2.23,1,5.41-.08,7.51-1.28,2.44-4.48,2.78-6.92,3-15.78,1.65-32.18.92-48,1s-31.56-.09-47.34-.24c-32.81-.32-65.63-.66-98.43.5-7.7.28-7.74,12.28,0,12,63-2.23,126,1.28,189-1,5.89-.21,12.15-.44,17.21-3.84,5.27-3.55,7.22-9.71,7-15.84-.32-7.25-2.05-14.6-3.17-21.77l-3.6-23.23c-2.19-14.08-3.44-28.87-7.94-42.45-4-12-11-21.13-20.57-29.17-8-6.72-18.11-13.18-22.31-23.2-5.33-12.71,0-27.59.26-40.73.27-14.35-5.56-27.08-12.32-39.41-5.89-10.73-12.33-22.08-23.15-28.53C126-8.45,95.4,6.35,75.07,20.41c-5.36,3.71-9.7,8.11-12.26,14.17-2.65,6.26-3.19,13.05-4.87,19.58-3.68,14.34-11,27.41-17.72,40.52-7.74,15.15-16.11,30.14-22.82,45.79a105.56,105.56,0,0,0-7.18,22.24c-1.47,7.92-.72,15.74-1.54,23.68-.8,7.76-5.61,14.19-7.42,21.68a51.38,51.38,0,0,0,.28,23.75C5.12,247.14,14.68,260,24,272.33c4.61,6.07,15,.09,10.36-6.06Z"/></g></g></svg>