<svg xmlns="http://www.w3.org/2000/svg" viewBox="0 0 463.35 184.89"><defs><style>.cls-1{fill:#666;}</style></defs><g id="Capa_2" data-name="Capa 2"><g id="Capa_1-2" data-name="Capa 1"><path class="cls-1" d="M451.57,133.5c-5.61-6-13.33-9.51-20.13-14.14A69.84,69.84,0,0,1,407.1,90.22c-3.62-8.14-5.74-17.09-11-24.31-5.05-7-12.1-11.35-20-14.78-10-4.49-21.35-7.29-31.56-11.77-1.08-.49-2.14-1-3.19-1.53-14.65-7.47-26.5-20.19-41.35-26.81a52.77,52.77,0,0,0-6.67-2.62C264-.83,234.13,19.11,203.76,24.33c-13.37,2.29-27.93,2-39.13,9.61-.19.13-.36.27-.55.41v1.16c-9.51,7.33-14.76,19.25-24,27.07C122.67,77.37,95.5,74.27,76.82,87.45c-21.26,15-27.38,48.12-52,56.56l-8.15,4.17A11.87,11.87,0,0,0,6,152.33c2.49,5.39,9.2,7.06,15.05,8.06a1303.58,1303.58,0,0,0,416.61,3.4c6.54-1,13.77-2.47,17.64-7.84C460.07,149.28,457.19,139.51,451.57,133.5Z"/><path class="cls-1" d="M455.81,129.26c-8.28-8.43-19.63-12.62-28.25-20.63-8.87-8.25-14.13-18.18-18.36-29.37C405.07,68.32,400,58.9,390.24,52s-21.38-10.19-32.4-14c-11.66-4-21.44-9.78-31.32-17.1S306.82,6.33,295,2.61c-23-7.23-46.42,2.09-68.11,9.27-13.06,4.32-25.83,6.78-39.42,8.61-6.46.87-12.79,2-18.83,4.56-4.9,2.06-10.57,4.41-10.57,10.46l1.75-4.24c-12.15,9.8-17.79,25.31-32.41,32.3C114,70,98.47,70.78,84.69,76.48,71.77,81.84,62.78,91.23,55,102.62,48,113,42.09,125.15,32.13,133.18c-4.19,3.38-9.24,5.09-14,7.51-1.18.6-2.34,1.27-3.55,1.82a4.22,4.22,0,0,1-.67.34c1.72-.45,1.33-.56-.25-.71-4.32-.38-9.22,3-12,6a6.17,6.17,0,0,0-.94,7.27c3.17,5.78,9,8.7,15.2,10.14,7.74,1.79,15.76,2.74,23.61,3.95q25.32,3.92,50.77,6.85,51.24,5.91,102.83,7.75a1303.07,1303.07,0,0,0,205.88-8.92q14.32-1.77,28.6-3.83c8-1.16,16.68-1.67,24.11-5.15,15.51-7.27,14-25.56,4-36.89-5.09-5.82-13.55,2.69-8.48,8.49,3.3,3.76,6.44,10.47,2.8,15.05-3.46,4.36-10.94,4.72-16,5.5q-23.25,3.55-46.63,6.2-46.41,5.3-93.12,7.25a1306.23,1306.23,0,0,1-186.59-5.56q-26.29-2.67-52.48-6.44-12.52-1.8-25-3.86c-5.59-.92-16-.89-19.14-6.59l-.94,7.27c2.88-3.07,6-1.78,9.57-3.24,1.81-.75,3.55-1.82,5.3-2.71,4.41-2.26,9.06-4,13.39-7.26,10.62-8.07,17.27-19.91,24.41-30.89C70.56,100.65,79,90.94,92.69,86.22,107,81.28,122.55,80,136,72.62c7.75-4.25,13.46-10.6,18.75-17.55A125.93,125.93,0,0,1,163.7,44c3-3.14,6.38-4.85,6.38-9.6l-3,5.18c8.61-6.35,19.92-7,30.16-8.26a170,170,0,0,0,32-7.55c20.23-6.66,42.91-16.67,64.26-9,10.24,3.7,18.94,10.6,27.6,17,8.95,6.63,18,12.12,28.47,16,10.74,4,22.17,6.78,32,12.88S395.15,76,399.11,86.38c4.25,11.14,10.21,21.26,18.8,29.63,8.85,8.61,20.84,13,29.42,21.74C452.75,143.26,461.24,134.77,455.81,129.26Z"/></g></g></svg>