<svg xmlns="http://www.w3.org/2000/svg" viewBox="0 0 80.32 90.26"><defs><style>.cls-1{fill:#ff7f32;}</style></defs><g id="Capa_2" data-name="Capa 2"><g id="Capa_1-2" data-name="Capa 1"><path class="cls-1" d="M4.84,30.26C4.22,42,15.54,49.71,23.3,56.67c9,8.09,20.63,16,26.46,26.87,3,5.67,11.68.62,8.63-5.05C53.21,68.84,44.16,62,36.15,54.79,31.58,50.68,27,46.62,22.42,42.47c-3.6-3.3-7.86-6.91-7.58-12.21.34-6.43-9.66-6.41-10,0Z"/><path class="cls-1" d="M34.27,4.83a219.3,219.3,0,0,0,6.24,48.53c1.85,7.49,5.1,15.09,4.24,22.92-.55,5,2.85,10,8.34,7A5,5,0,0,0,55.57,79v-.39c.11-6.44-9.89-6.44-10,0V79l2.48-4.32-.42.23,3.85-.51L51,74.25l3.49,3.49c-.18,1.46-.18,1.59,0,.38.13-.71.24-1.42.32-2.14A25.63,25.63,0,0,0,55,72.7,43.83,43.83,0,0,0,53.67,64c-1.47-6.31-3.43-12.49-4.81-18.83a206.89,206.89,0,0,1-4.59-40.3c-.12-6.43-10.12-6.45-10,0Z"/><path class="cls-1" d="M64.76,20.31c-3.23,9.88-7,19.73-9.44,29.83C53.07,59.33,52.2,69,47.2,77.21c-3.39,5.58,5,10.26,8.63,5.05L56.69,81c3.68-5.3-5-10.3-8.64-5l-.85,1.24,8.63,5.05C61,73.69,62.39,64,64.58,54.41,67,43.75,71,33.36,74.4,23c2-6.13-7.65-8.76-9.64-2.66Z"/><path class="cls-1" d="M45.7,66.29c.59,4.68-1.22,9.07-2.57,13.46a22.87,22.87,0,0,0-1.38,6.47c0,2.48,1.74,3.44,4,3.67a72.24,72.24,0,0,0,7.64.37c1.31,0,2.63-.05,3.94-.13a7.63,7.63,0,0,0,3.27-.66,5,5,0,0,0,2.34-4.82c-.17-2.13-1.45-3.85-2.78-5.42A61.56,61.56,0,0,1,51.48,66c-.67-1.41-2.75-.63-2.79.76q-.22,8.11.25,16.22c.11,1.92,3.11,1.93,3,0q-.48-8.1-.25-16.22l-2.8.76A60,60,0,0,0,55,77.59c1.18,1.58,2.53,3,3.71,4.59.84,1.13,1.76,2.76.94,4.15a1.94,1.94,0,0,1-1.72.76c-1.15.1-2.3.13-3.45.15q-3.29.06-6.56-.16L46.36,87A3.65,3.65,0,0,1,45,86.77c-.47-.33-.15-1.39,0-1.9a46.71,46.71,0,0,1,1.57-5.82c1.33-4.12,2.76-8.36,2.21-12.76a1.56,1.56,0,0,0-1.5-1.5c-.74,0-1.61.7-1.5,1.5Z"/><path class="cls-1" d="M37.29,16.08c-.29-.3-.57-.61-.84-.92-.13-.15-.25-.3-.37-.46s.11.15,0,0l-.17-.24a17.08,17.08,0,0,1-1.32-2.12c-.19-.34-.36-.69-.52-1.05L33.91,11c-.1-.23.07.18,0-.05l-.24-.61A18.71,18.71,0,0,1,33,7.92a1.51,1.51,0,0,0-1.84-1,1.53,1.53,0,0,0-1.05,1.84,19.72,19.72,0,0,0,5.1,9.49,1.51,1.51,0,0,0,2.12,0,1.53,1.53,0,0,0,0-2.12Z"/><path class="cls-1" d="M38,26.74a14.28,14.28,0,0,1-1.42-.4q-.36-.12-.72-.27l-.1,0-.32-.14c-.44-.22-.87-.45-1.29-.71l-.59-.38-.29-.21s-.37-.28-.14-.1a14,14,0,0,1-2.07-2l-.22-.27c-.29-.36.16.23-.11-.14-.13-.2-.27-.39-.4-.58-.28-.43-.53-.88-.77-1.34a1.51,1.51,0,0,0-2.05-.54,1.53,1.53,0,0,0-.54,2.05,15.38,15.38,0,0,0,10.23,8,1.5,1.5,0,1,0,.8-2.89Z"/><path class="cls-1" d="M41,42.58a21.59,21.59,0,0,1-2.32-1.47l-.55-.4c.24.18-.11-.1-.13-.11l-.21-.17c-.37-.31-.73-.63-1.08-1a25.4,25.4,0,0,1-1.88-2L34.38,37l-.06-.08-.2-.27c-.28-.39-.55-.79-.81-1.19a1.52,1.52,0,0,0-2.74.36l-.19.72a1.5,1.5,0,0,0,2.89.8l.19-.73-2.74.36a24.51,24.51,0,0,0,8.74,8.25A1.5,1.5,0,1,0,41,42.58Z"/><path class="cls-1" d="M43.34,18.23a31.36,31.36,0,0,0,8.54-9.48l-2.74-.36.2,1.23a1.5,1.5,0,0,0,1.84,1,1.54,1.54,0,0,0,1-1.84L52,7.6a1.48,1.48,0,0,0-1.24-1.08,1.52,1.52,0,0,0-1.5.72,28.12,28.12,0,0,1-1.6,2.47,24.15,24.15,0,0,1-1.7,2.1c-.64.72-1.32,1.4-2,2q-.55.51-1.14,1l-.53.42c-.08.07-.08.07,0,0l-.12.09c-.12.09-.24.19-.36.27a1.55,1.55,0,0,0-.54,2.06,1.52,1.52,0,0,0,2.05.54Z"/><path class="cls-1" d="M45.53,39.58A40.83,40.83,0,0,0,52,29.28a1.55,1.55,0,0,0-.54-2.05,1.51,1.51,0,0,0-2.05.54,38.46,38.46,0,0,1-6,9.69,1.54,1.54,0,0,0,0,2.12,1.51,1.51,0,0,0,2.12,0Z"/><path class="cls-1" d="M57.66,50.22a16,16,0,0,1-1-1.81c-.08-.17-.16-.34-.23-.51l-.06-.15c-.13-.33-.25-.65-.35-1a16.44,16.44,0,0,1-.51-2l-.09-.54c0-.07-.07-.47,0-.15,0-.37-.08-.74-.1-1.11a1.5,1.5,0,0,0-3,0,18.38,18.38,0,0,0,2.78,8.72,1.5,1.5,0,1,0,2.59-1.52Z"/><path class="cls-1" d="M61.13,33a1.18,1.18,0,0,1-.44-.55,4.05,4.05,0,0,1-.29-.94,5.64,5.64,0,0,1-.11-1q-.06-.87-.09-1.74c-.09-2.28-.1-4.57,0-6.85.06-1.93-2.94-1.93-3,0q-.12,3.9.07,7.82c.11,2.19.37,4.53,2.38,5.84A1.5,1.5,0,0,0,61.13,33Z"/><path class="cls-1" d="M68.69,31.23A20.2,20.2,0,0,0,79.9,24.32a1.54,1.54,0,0,0,0-2.12,1.5,1.5,0,0,0-2.12,0,17.43,17.43,0,0,1-9.89,6.14,1.5,1.5,0,0,0-1,1.84,1.52,1.52,0,0,0,1.84,1.05Z"/><path class="cls-1" d="M63.45,49.11q4.93-4.24,10.09-8.2a1.55,1.55,0,0,0,.54-2,1.52,1.52,0,0,0-2-.54Q66.55,42.51,61.33,47a1.5,1.5,0,0,0,2.12,2.12Z"/><path class="cls-1" d="M14.47,39.24a21.2,21.2,0,0,0,4.7-6.85,1.67,1.67,0,0,0,.16-1.16,1.57,1.57,0,0,0-.69-.89,1.52,1.52,0,0,0-2.06.54,20.21,20.21,0,0,1-1.87,3.45c-.18.26-.36.51-.55.76,0,0-.21.3-.08.12s0,0-.06.06l-.31.39c-.43.51-.88,1-1.36,1.46a1.5,1.5,0,0,0,2.12,2.12Z"/><path class="cls-1" d="M16,43.28A136,136,0,0,1,2.25,37.5,1.54,1.54,0,0,0,.19,38a1.52,1.52,0,0,0,.54,2.05,146.3,146.3,0,0,0,14.51,6.09,1.51,1.51,0,0,0,1.84-1,1.54,1.54,0,0,0-1-1.85Z"/><path class="cls-1" d="M24.84,50.62a36.09,36.09,0,0,1-14.43-3.14A1.53,1.53,0,0,0,8.36,48a1.51,1.51,0,0,0,.54,2.06,39.83,39.83,0,0,0,15.94,3.55,1.5,1.5,0,0,0,0-3Z"/><path class="cls-1" d="M31.22,54a19.74,19.74,0,0,0-3.83-12.57,1.54,1.54,0,0,0-2.05-.54,1.52,1.52,0,0,0-.54,2A17.14,17.14,0,0,1,28.22,54a1.51,1.51,0,0,0,1.5,1.5,1.53,1.53,0,0,0,1.5-1.5Z"/><path class="cls-1" d="M43.76,79.75c-.91,1.72-1.75,3.49-1.2,5.47a5.69,5.69,0,0,0,4.78,4c3.08.53,7.41.85,10.34-.38,2.49-1,4.27-3.31,3.49-6.15-.65-2.35-3.64-4.54-6.15-3.49a11.29,11.29,0,0,1-6.07.17l2.2,1.28-.24-.25,1.47,3.54v-.27l-.69,2.53c.21-.46.46-.9.69-1.35a5,5,0,1,0-8.63-5Z"/></g></g></svg>