<svg xmlns="http://www.w3.org/2000/svg" viewBox="0 0 135.78 166.85"><defs><style>.cls-1{fill:#ff7f32;}</style></defs><g id="Capa_2" data-name="Capa 2"><g id="Capa_1-2" data-name="Capa 1"><path class="cls-1" d="M3.88,7.51C6.51,20.65,15.33,31.33,25.37,39.75c10.81,9.06,24,16.37,32.29,28.06,3.77,5.32,6.72,11.6,6.84,18.22.13,7.83-4.18,15-7.42,21.85q-5.22,11.1-10.46,22.2c-3.1,6.57-7.81,13.86-6.47,21.42,1.15,6.49,6.46,10.88,12.51,12.82,7.82,2.51,15.76-.46,23.62,1a6.11,6.11,0,0,0,7.59-5.79c1.55-17.4-9.26-32-19.52-44.86-4.15-5.21-10.91.68-10,5.84a36.26,36.26,0,0,1-5.7,26c-2.7,4.17,1.85,10.68,6.78,8.81,5.45-2.07,11.46,1.21,17.19-.31a12.17,12.17,0,0,0,9.16-9.72,9.82,9.82,0,0,0-5.35-10.83,12.09,12.09,0,0,0-7.13-.78,17.48,17.48,0,0,0-3.13.6c-1.75.59-2.07-.61-.22.87-6-4.78-14.51,3.65-8.49,8.49a11,11,0,0,0,7,2.9,20.1,20.1,0,0,0,3.78-.44c1.79-.33,3.31.05,2.43-1.79-.77-1.62-1.1-.76-2.88-.75a36.91,36.91,0,0,1-5-.57c-3.65-.5-7-.56-10.5.76L59,152.57a48.68,48.68,0,0,0,6.91-35.22l-10,5.84c8.34,10.48,17.26,22.26,16,36.37l7.6-5.79a55,55,0,0,0-14-.42c-3.39.21-7,.58-10.21-.81-4.55-2-3.35-5.44-1.59-9.3,1.91-4.16,3.91-8.29,5.86-12.43,4.13-8.76,8.42-17.46,12.38-26.3,3.6-8.05,5.52-15.89,4-24.71-2.94-16.68-16-28.54-28.75-38.32-13-9.92-28.21-20-31.64-37.16C13.94-3.24,2.37,0,3.88,7.51Z"/><path class="cls-1" d="M70.46,126.79a111,111,0,0,1,16.93-24.7C93.66,95.25,101.64,90,107.56,82.9a30.51,30.51,0,0,0,6.17-11.45c1.29-4.66,1.37-9.55,2.73-14.19a32.6,32.6,0,0,1,16.48-19.43c5.89-3.09,1.74-13.59-4.62-11l-3.61,1.49c-7,2.91-3.95,14.52,3.19,11.57l3.61-1.49-4.62-11a44.21,44.21,0,0,0-19,19,44.75,44.75,0,0,0-4.23,13c-.86,5.27-1.26,10.52-4.64,14.89C93.29,81.9,84.69,87.19,78.33,94.23A122.85,122.85,0,0,0,60.1,120.74c-3.51,6.86,6.84,12.94,10.36,6.05Z"/><path class="cls-1" d="M76.44,15.44c-.07,3.79-3.3,8-5.08,11.24q-2.94,5.43-6,10.81T59.22,48.2c-1.74,3-3.79,5.72-2.62,9.31A6.17,6.17,0,0,0,64,61.7l.34-.06a6,6,0,0,0,4.2-4.19l.11-.39a6.14,6.14,0,0,0-4.19-7.39l-.22-.07c-7.31-2.54-10.46,9-3.19,11.57l.22.08-4.19-7.38-.12.39,4.19-4.19-.34.06,7.38,4.19c1,3.15,1.9-.89,2.85-2.53s1.9-3.29,2.84-4.94q3.08-5.35,6-10.78c3.5-6.36,8.39-13.14,8.54-20.63.15-7.72-11.85-7.72-12,0Z"/><path class="cls-1" d="M56.9,110.31A203.61,203.61,0,0,1,34.54,96.08c-4.44-3.25-17.9-11.24-13.88-18S14.24,65.36,10.3,72c-6.53,11,1.49,21.27,10,28.11a210,210,0,0,0,30.58,20.57c6.77,3.73,12.83-6.63,6.06-10.37Z"/><path class="cls-1" d="M19,5.22a8.9,8.9,0,0,1-.35,1.22l-.09.26-.09.21.07-.16s-.26.55-.29.6a7.83,7.83,0,0,1-.62,1.05,2.75,2.75,0,0,1-.19.28c-.05.07-.24.35,0,.05-.12.16-.26.32-.39.47a11.63,11.63,0,0,1-.85.87c-.15.14-.31.26-.47.4s.21-.15,0,0l-.27.2a11.06,11.06,0,0,1-1,.63c-.2.11-.4.2-.6.29s.27-.09,0,0l-.31.11a1.5,1.5,0,0,0,.8,2.9A12.17,12.17,0,0,0,21.9,6,1.5,1.5,0,1,0,19,5.22Z"/><path class="cls-1" d="M25.61,17.73A3.71,3.71,0,0,1,26,20a5.61,5.61,0,0,1-.93,2.41,15.79,15.79,0,0,1-4.19,3.86,1.54,1.54,0,0,0-.54,2.05,1.51,1.51,0,0,0,2,.54c2-1.47,4.15-3,5.45-5.22a7.48,7.48,0,0,0,.35-7.38,1.5,1.5,0,0,0-2.59,1.52Z"/><path class="cls-1" d="M33.87,24.75a11.29,11.29,0,0,1,0,1.3c0,.25,0,.49-.05.74,0,0,0,.3,0,.2a1.4,1.4,0,0,0,0,.21,13.78,13.78,0,0,1-.7,2.59,8.45,8.45,0,0,1-.44,1A12.86,12.86,0,0,1,32,31.91c-.11.18-.24.36-.36.54s-.15.21-.31.4-.28.34-.43.5l-.22.23c-.17.16.23-.08-.11.07l.76-.21.15,0,.66.39,0-.06.43,1.06v-.06l-.2.75-.71.51-1.15-.15,0,0-.69-.9,0,.07a1.5,1.5,0,0,0,2.89-.8A1.6,1.6,0,0,0,30,33.66a1.66,1.66,0,0,0,1.2,2.79A3,3,0,0,0,33.39,35a15.72,15.72,0,0,0,1.32-1.83,14.74,14.74,0,0,0,2.16-8.46,1.5,1.5,0,0,0-3,0Z"/><path class="cls-1" d="M41.8,32.91a19.37,19.37,0,0,1,1.38,10.16,1.56,1.56,0,0,0,1,1.85,1.52,1.52,0,0,0,1.85-1.05A22.34,22.34,0,0,0,44.7,32.12a1.55,1.55,0,0,0-1.85-1,1.5,1.5,0,0,0-1.05,1.84Z"/><path class="cls-1" d="M63.56,46.56l-1.14-8.31-.27-2a3.51,3.51,0,0,0-.58-2,1.65,1.65,0,0,0-2.55,0,1.67,1.67,0,0,0,.13,2.24,1.49,1.49,0,0,0,1.46.39l.06,0a1.5,1.5,0,1,0-.8-2.89l-.06,0,1.46.39-.05,0,.39.66,0,.24-.2.75,0-.06-.89.69.07,0-1.15-.16.12.06L59.1,36c0-.16,0-.14,0,0l.05.35.09.69.21,1.5.39,2.89.81,5.89a1.52,1.52,0,0,0,1.85,1,1.54,1.54,0,0,0,1-1.85Z"/><path class="cls-1" d="M65.54,25a5.68,5.68,0,0,1,.51.54,6.41,6.41,0,0,1,.38.63c.07.14.14.28.2.42-.07-.18,0,.1.05.16.1.27.19.56.27.84.31,1.12.47,2.28.8,3.4.68,2.26,2.15,4.71,4.67,5.14a1.54,1.54,0,0,0,1.84-1,1.51,1.51,0,0,0-1.05-1.85,2.71,2.71,0,0,1-.41-.09s-.38-.14-.21-.07a2.36,2.36,0,0,0-.38-.22c.14.1-.14-.13-.17-.15l-.29-.31c-.18-.18,0,0-.08-.08L71.46,32a6.6,6.6,0,0,1-.36-.64c-.07-.13-.13-.27-.19-.41.08.19,0-.06,0-.13a13.06,13.06,0,0,1-.44-1.51c-.52-2.3-.93-4.77-2.76-6.44a1.53,1.53,0,0,0-2.12,0,1.5,1.5,0,0,0,0,2.12Z"/><path class="cls-1" d="M70.93,15.7a19.46,19.46,0,0,1,5.83,10.24,1.5,1.5,0,0,0,2.9-.79,22.39,22.39,0,0,0-6.61-11.57,1.5,1.5,0,0,0-2.12,2.12Z"/><path class="cls-1" d="M84.46,24a47.09,47.09,0,0,0,11.11-7.76,1.5,1.5,0,0,0-2.12-2.12A44.06,44.06,0,0,1,83,21.45a1.51,1.51,0,0,0-.54,2.05,1.53,1.53,0,0,0,2,.54Z"/><path class="cls-1" d="M78.66,36.28a38.77,38.77,0,0,0,12.93-5.84,1.54,1.54,0,0,0,.54-2.05,1.53,1.53,0,0,0-2.06-.54,36.5,36.5,0,0,1-12.21,5.54c-1.88.46-1.08,3.36.8,2.89Z"/><path class="cls-1" d="M70.47,45.78a45.27,45.27,0,0,0,15.46-4.54c1.51-.75.46-3.27-1.16-2.74l-1.06.35c-1.83.6-1,3.5.79,2.89l1.07-.34-1.15-2.75a41.38,41.38,0,0,1-14,4.13,1.54,1.54,0,0,0-1.5,1.5,1.51,1.51,0,0,0,1.5,1.5Z"/><path class="cls-1" d="M67.73,54.77a36.39,36.39,0,0,0,16-3,1.5,1.5,0,0,0,.54-2.05,1.54,1.54,0,0,0-2-.54,33.09,33.09,0,0,1-14.44,2.62c-1.93-.08-1.92,2.92,0,3Z"/><path class="cls-1" d="M121.42,24.77a48.08,48.08,0,0,0-1.8,9.73,1.49,1.49,0,0,0,1.5,1.5,1.54,1.54,0,0,0,1.5-1.5,40.44,40.44,0,0,1,.59-4.4c.29-1.53.66-3,1.1-4.53a1.5,1.5,0,0,0-1-1.84,1.53,1.53,0,0,0-1.85,1Z"/><path class="cls-1" d="M105.5,36.89a11.4,11.4,0,0,0,7.87,13.59,1.5,1.5,0,0,0,.79-2.9,8,8,0,0,1-4.85-3.81,8,8,0,0,1-.4-.77,3.08,3.08,0,0,1-.24-.58,10.69,10.69,0,0,1-.44-1.66c-.1-.47,0,.26,0-.22,0-.16,0-.31,0-.47s0-.51,0-.77a5.09,5.09,0,0,1,.25-1.61,1.51,1.51,0,0,0-2.9-.8Z"/><path class="cls-1" d="M96.09,52.44a18.31,18.31,0,0,0,10.31,13,1.56,1.56,0,0,0,2-.54,1.52,1.52,0,0,0-.54-2.06A15.47,15.47,0,0,1,99,51.65a1.5,1.5,0,1,0-2.89.79Z"/><path class="cls-1" d="M92.05,70.3l6.5,8.29a1.5,1.5,0,0,0,2.12,0,1.54,1.54,0,0,0,0-2.12l-6.5-8.3a1.51,1.51,0,0,0-2.12,0,1.56,1.56,0,0,0,0,2.13Z"/><path class="cls-1" d="M85,79.78a46.57,46.57,0,0,0,.27,9,1.54,1.54,0,0,0,1.5,1.5c.73,0,1.61-.67,1.5-1.5a46.57,46.57,0,0,1-.27-9,1.52,1.52,0,0,0-1.5-1.5,1.54,1.54,0,0,0-1.5,1.5Z"/><path class="cls-1" d="M74,115.94A34,34,0,0,0,90,114a1.55,1.55,0,0,0,1-1.85,1.52,1.52,0,0,0-1.84-1.05A31.79,31.79,0,0,1,74,112.94a1.5,1.5,0,0,0-1.5,1.5,1.54,1.54,0,0,0,1.5,1.5Z"/><path class="cls-1" d="M95.83,96.29a34.08,34.08,0,0,1-12.49.45,1.54,1.54,0,0,0-1.84,1.05,1.5,1.5,0,0,0,1,1.84,38.05,38.05,0,0,0,14.07-.45,1.5,1.5,0,0,0,1-1.84,1.52,1.52,0,0,0-1.84-1Z"/><path class="cls-1" d="M97.79,88.65a58.71,58.71,0,0,0,18.38-1.83,1.51,1.51,0,0,0-.8-2.9,56,56,0,0,1-17.58,1.73c-1.93-.11-1.92,2.89,0,3Z"/><path class="cls-1" d="M109.41,75.08a31.43,31.43,0,0,0,11.12-8.39,1.52,1.52,0,0,0,.12-2,1.49,1.49,0,0,0-1.94-.38l-1.37.89a1.53,1.53,0,0,0-.54,2,1.51,1.51,0,0,0,2,.54l1.38-.89-1.82-2.36a29.19,29.19,0,0,1-10.52,7.92,1.51,1.51,0,0,0-.54,2.05,1.55,1.55,0,0,0,2.06.54Z"/><path class="cls-1" d="M115.65,59.79a15.75,15.75,0,0,1,10.63-4.21,1.5,1.5,0,0,0,0-3,18.81,18.81,0,0,0-12.75,5.09c-1.41,1.33.72,3.45,2.12,2.12Z"/><path class="cls-1" d="M119.64,45.81a49.24,49.24,0,0,0,13.09-2.1c1.57-.48,1.34-3-.4-3l-1.76.05c-1.93.06-1.94,3.06,0,3l1.76-.05-.4-2.94a46.56,46.56,0,0,1-12.29,2c-1.93,0-1.93,3,0,3Z"/><path class="cls-1" d="M73.69,61.42c-.1.36-.21.71-.34,1l-.11.26c-.06.17.12-.26,0,0l-.23.5a13.21,13.21,0,0,1-1.15,1.87c-.14.19,0,0,0,0s-.18.24-.21.26-.23.28-.36.42-.48.51-.73.75-.27.25-.41.36L70,67l-.11.09-.11.08-.23.16c-.16.12-.33.23-.51.34a1.5,1.5,0,0,0,1.52,2.59,14.11,14.11,0,0,0,6-8.07,1.52,1.52,0,0,0-1-1.84,1.53,1.53,0,0,0-1.84,1Z"/><path class="cls-1" d="M75.64,73.92a5.32,5.32,0,0,1,0,1,2,2,0,0,0,0,.25c0,.19.06-.37,0-.11a4,4,0,0,1-.11.5,4.58,4.58,0,0,1-.15.49s-.13.29,0,0,0,0,0,.1a6.36,6.36,0,0,1-.49.84c-.07.1-.26.27,0,0l-.14.16c-.1.12-.2.24-.31.35s-.25.23-.38.34-.27.13,0,0l-.21.15c-.25.17-.57.28-.81.45l.16-.07-.12,0-.24.08-.49.13a1.51,1.51,0,0,0-1,1.84,1.53,1.53,0,0,0,1.85,1.05,7.16,7.16,0,0,0,5.45-7.59,1.68,1.68,0,0,0-.44-1.06,1.52,1.52,0,0,0-1.06-.44,1.54,1.54,0,0,0-1.06.44,1.44,1.44,0,0,0-.44,1.06Z"/><path class="cls-1" d="M19.37,86.2l5.34-3.53c1.61-1.07,3.13-2.41,3.22-4.47a1.5,1.5,0,0,0-1.5-1.5,1.54,1.54,0,0,0-1.5,1.5c0,.29.07-.2,0,0a2,2,0,0,1-.07.26c0,.2,0,0,0-.06a.55.55,0,0,1-.12.24l-.14.23c-.11.16,0,.05,0,0-.05.13-.24.27-.34.37a5.22,5.22,0,0,1-.43.39l-.08.06-.12.09-1,.69-4.85,3.2a1.5,1.5,0,0,0,1.52,2.59Z"/><path class="cls-1" d="M28.91,85.62a4.51,4.51,0,0,1-.46.68c.07-.07.2-.26.05-.07l-.13.16-.27.31c-.19.2-.39.4-.59.58l-.32.27-.16.13c-.13.12.32-.23.08-.05a10.16,10.16,0,0,1-1.38.84c-.12.07-.25.12-.37.18s0,0,.09,0a.64.64,0,0,1-.19.08,8,8,0,0,1-.83.27,1.5,1.5,0,0,0,.8,2.9,10.88,10.88,0,0,0,6.27-4.73,1.51,1.51,0,0,0-.53-2,1.54,1.54,0,0,0-2.06.54Z"/><path class="cls-1" d="M32.54,92a11.17,11.17,0,0,1,.44,1.7c0,.14.07.37,0,.1,0,.17,0,.34.05.5s0,.55,0,.82,0,.55,0,.82,0,.33,0,.5c0,.33,0-.25,0,.1a12.52,12.52,0,0,1-.41,1.71,1.51,1.51,0,0,0,1,1.85,1.54,1.54,0,0,0,1.85-1,12.47,12.47,0,0,0-.06-7.85,1.5,1.5,0,0,0-2.89.8Z"/><path class="cls-1" d="M43.43,95.78c0,.09,0,.18,0,.27s0,.44,0,.16,0,.06,0,.11a2.84,2.84,0,0,1-.06.31l-.15.52c0,.09-.07.17-.1.26-.11.3.16-.32,0,0a7.87,7.87,0,0,1-.55,1l-.15.23c-.22.3.17-.21,0,0A4.59,4.59,0,0,1,42,99c-.12.13-.25.26-.38.38a5,5,0,0,0-.42.36l.09-.07-.11.08-.23.15-.51.29c-.08,0-.16.09-.24.12s-.38.14,0,0c-.18.06-.34.13-.51.18a5.18,5.18,0,0,1-.53.14l-.31.06.17,0-.18,0a1.61,1.61,0,0,0-1.06.44,1.56,1.56,0,0,0-.44,1.06,1.53,1.53,0,0,0,1.5,1.5,8.39,8.39,0,0,0,7.56-7.94,1.5,1.5,0,0,0-3,0Z"/><path class="cls-1" d="M12.37,89.93c-.36-.15.18.08,0,0l-.27-.12-.54-.26c-.36-.18-.71-.37-1-.58s-.64-.4-1-.62S9.2,88.11,9,88s-.28-.22,0,0l-.23-.18a17.22,17.22,0,0,1-1.7-1.61c-.27-.29-.53-.59-.78-.91-.1-.12,0-.08,0,0l-.18-.24c-.13-.17-.25-.35-.38-.54A1.5,1.5,0,0,0,3.17,86a18.45,18.45,0,0,0,8.4,6.79,1.51,1.51,0,0,0,1.85-1,1.54,1.54,0,0,0-1.05-1.84Z"/><path class="cls-1" d="M24.8,99c-2.72.06-5.44.06-8.16,0a23,23,0,0,1-3.22-.18c-.8-.13-1.44-.31-1.76-1a1.5,1.5,0,1,0-2.59,1.52c1.15,2.39,4.12,2.53,6.43,2.61q4.65.17,9.3.06c1.93,0,1.94-3,0-3Z"/><path class="cls-1" d="M33.39,106H17.57c-.39,0-.45,0-.16,0l.54.54-.1-.15.2.75v-.11l-.44,1.06.09-.07-.67.38-.17,0-.76-.2.07,0-.74-1.3v.1a1.51,1.51,0,0,0,1.5,1.5,1.54,1.54,0,0,0,1.5-1.5V107a1.51,1.51,0,0,0-.74-1.29,1.78,1.78,0,0,0-2.2.29,1.73,1.73,0,0,0,.24,2.51,4.09,4.09,0,0,0,2.67.47h15a1.5,1.5,0,0,0,0-3Z"/><path class="cls-1" d="M49.37,112.62a47.48,47.48,0,0,1-23,.32c-1.87-.44-2.67,2.45-.79,2.89a50.77,50.77,0,0,0,24.56-.32,1.5,1.5,0,0,0-.8-2.89Z"/><path class="cls-1" d="M65.2,130.27c2.54,2.34,4.24,5.84,6.16,8.71a73.76,73.76,0,0,1,4.57,7.26c.79,1.52,1.13,3.13,1.81,4.65q-.24,2.63.6,1c.84-.95.45-1-1.19,0-3.07.56-6,1.84-9.13,2.37a52.39,52.39,0,0,1-9.52.67c-1.72,0-3.44-.11-5.15-.3-1.29-.15-3.13-.93-4.34-.73-1.72-.52-1.3.1,1.27,1.88l.48-1.74a15.54,15.54,0,0,1,1-2.64q1.26-2-1.29-.09c1.29.58,2.72.47,4.06,1.18,1.77.93,2.3,3.19,2-.14l1.76-4.25a18.77,18.77,0,0,1-3.43,1.75c-3.73,1.9-3.51,6.63-1.21,9.42a14.86,14.86,0,0,0,2.83,2.48l1.44-11-3.87,1.11a6.09,6.09,0,0,0-4.41,5.78c.32,9,12.28,8.55,18.84,8.8,7.67.29,16.17-.65,18.51-9.35,2-7.46-9.56-10.65-11.57-3.19-.36,1.35-7,.54-7.88.49-1.56-.07-3.11-.18-4.67-.34-1.2-.12-5.19-1.77-3,.11l1.76,4.24,0-.76-4.4,5.79,3.87-1.11c5.36-1.54,5.41-8,1.43-11l-.41-.61L61,160.19c5.52-2.83,10.53-7.32,5.4-13.38a21.65,21.65,0,0,0-16.43-7.5c-7,.17-9.8,7.36-11.21,13.26-1.9,8,1.88,12.07,9.64,13.36a66.76,66.76,0,0,0,21.16.15c5.43-.82,14.4-2.11,18.25-6.5,4.58-5.24,1.36-14.1-1.46-19.4a103,103,0,0,0-5.63-8.83c-2.15-3.21-4.13-6.93-7-9.56C68,116.56,59.51,125,65.2,130.27Z"/><path class="cls-1" d="M1.5,16.3a7.6,7.6,0,0,1,3.12,1.4c1.11.73,2.18,1.51,3.35,2.15a25.05,25.05,0,0,0,8,2.74l.4-2.95-2.06.14a1.53,1.53,0,0,0-1.5,1.5,1.51,1.51,0,0,0,1.5,1.5l2.06-.14a1.5,1.5,0,0,0,1.47-1.3,1.48,1.48,0,0,0-1.08-1.64,22.78,22.78,0,0,1-7.92-2.83c-2.4-1.42-4.43-3.26-7.31-3.57a1.5,1.5,0,0,0,0,3Z"/><path class="cls-1" d="M6,29a58.3,58.3,0,0,0,12.72,2.8,1.48,1.48,0,0,0,1.47-1.3,1.51,1.51,0,0,0-1.08-1.65,2.8,2.8,0,0,0-2.85.83,1.55,1.55,0,0,0,0,2.12,1.53,1.53,0,0,0,2.13,0c.2-.24.06,0-.07-.06l.4-2.94A55.32,55.32,0,0,1,6.81,26.06,1.5,1.5,0,1,0,6,29Z"/><path class="cls-1" d="M28,38.62a38.36,38.36,0,0,1-9.91-1,1.54,1.54,0,0,0-1.85,1.05,1.53,1.53,0,0,0,1.05,1.85A41.93,41.93,0,0,0,28,41.62a1.5,1.5,0,0,0,0-3Z"/><path class="cls-1" d="M57,94.46a1.65,1.65,0,0,0-2.46-1.41,1.78,1.78,0,0,0-.3,2.79,25.06,25.06,0,0,0,3,2.66,44.45,44.45,0,0,0,7,4.64A1.54,1.54,0,0,0,66,102.9a1.49,1.49,0,0,0,.23-1.81l-.48-.63a1.55,1.55,0,0,0-2-.54,1.53,1.53,0,0,0-.54,2.06l.48.62,2.05-2a41.42,41.42,0,0,1-5-3.15c-.76-.55-1.38-1-2.13-1.68-.37-.31-.74-.64-1.1-1l-.5-.46-.31-.3c-.38-.36.07-.11.05.45l-.21.76,0-.07-.54.54.07,0-.76.2-.24,0-.67-.39.05,0L54,94.4v.06a1.5,1.5,0,0,0,3,0Z"/><path class="cls-1" d="M44.9,51.44a28.68,28.68,0,0,1-12.59-.94c-1.85-.56-2.64,2.33-.79,2.89a32.18,32.18,0,0,0,14.17,1,1.51,1.51,0,0,0,1.05-1.85,1.55,1.55,0,0,0-1.84-1.05Z"/><path class="cls-1" d="M67.73,91.49a9.85,9.85,0,0,0-3.66-7.19,21,21,0,0,0-3.62-2.42c-.59-.31-1.19-.61-1.79-.9-.86-.42-1.81-.86-2.72-.26a1.55,1.55,0,0,0-.54,2.06,1.52,1.52,0,0,0,2.06.53.69.69,0,0,1-.71.07l.1.05.37.18L58,84c.52.26,1,.53,1.55.82a14.53,14.53,0,0,1,2.68,1.84,12.21,12.21,0,0,1,1.06,1.1c.31.37-.15-.21.14.18.07.1.14.21.22.31s.27.43.39.65l.18.34s.19.42.09.19a6,6,0,0,1,.25.71c.07.24.12.48.17.72.08.46,0-.26,0,.2,0,.15,0,.3,0,.45a1.5,1.5,0,0,0,3,0Z"/></g></g></svg>