<svg xmlns="http://www.w3.org/2000/svg" viewBox="0 0 53.39 91.62"><defs><style>.cls-1{fill:#ff7f32;}</style></defs><g id="Capa_2" data-name="Capa 2"><g id="Capa_1-2" data-name="Capa 1"><path class="cls-1" d="M18,1.62C8.42,10.33,6.78,23.22,6.77,35.49c0,6.31.05,12.85,1.74,19,1.64,5.93,5.84,11.33,5.72,17.64-.1,4.86,6.87,8.36,10.24,4.24,5.45-6.66,8-13.64,9.69-22,.76-3.75,1.48-7.7,4.48-10.36s7-3.68,10.58-4.82c7.33-2.33,4.2-13.92-3.19-11.57-8.39,2.66-16.76,6.17-20.7,14.61S22.2,60.28,16,67.88l10.25,4.24c.1-5.48-1.81-10.16-4-15.08a41.46,41.46,0,0,1-3.44-16.18c-.29-10.58-.85-23,7.63-30.75C32.18,4.9,23.68-3.57,18,1.62Z"/><path class="cls-1" d="M13.49,64.77c.19,3.17-1.81,5.58-3.41,8.17-2,3.19-4,6.87-4,10.72-.09,10.57,15.38,7.83,22,7.08,3.56-.41,5.53-2.45,6-6,.48-3.74-.64-7.22-2.12-10.6-1.25-2.86-3.06-5.64-3-8.86.13-7.72-11.87-7.72-12,0C16.8,69.14,18,72.5,19.55,76c1.32,2.92,2.88,5.47,2.45,8.78l6-6a66.4,66.4,0,0,1-15,.43L16,80l1.21,1.1.81,3c.13-3,3.15-6.1,4.55-8.56a19.36,19.36,0,0,0,2.93-10.79c-.47-7.67-12.47-7.72-12,0Z"/><path class="cls-1" d="M9,1.84c-.15,4.48.2,9.59,4,12.6a7,7,0,0,0,1.25.84c.32.17,1,.37,1.15.51a.6.6,0,0,1,.12.8c-.09.1-.69.06-.78-.2s.41-.66.79-.62a1.51,1.51,0,0,0,1.5-1.5,1.53,1.53,0,0,0-1.5-1.5,3.59,3.59,0,0,0-3.61,4.62,3.62,3.62,0,0,0,5.28,1.68,3.58,3.58,0,0,0,.25-5.47c-.72-.66-1.73-.82-2.51-1.42a7,7,0,0,1-1.82-2.27C11.83,7.47,11.92,4.53,12,1.84c.07-1.93-2.93-1.93-3,0Z"/><path class="cls-1" d="M2.55,15.63A22.89,22.89,0,0,0,13.82,33.31a1.5,1.5,0,0,0,1.52-2.59A19.75,19.75,0,0,1,5.55,15.63a1.54,1.54,0,0,0-1.5-1.5,1.52,1.52,0,0,0-1.5,1.5Z"/><path class="cls-1" d="M.22,37.16A28.39,28.39,0,0,0,16.38,47.71l.4-2.94-1.91-.05c-1.93,0-1.93,3,0,3l1.91.05a1.51,1.51,0,0,0,.4-3A25.18,25.18,0,0,1,2.81,35.64a1.55,1.55,0,0,0-2-.54,1.52,1.52,0,0,0-.54,2.06Z"/><path class="cls-1" d="M2.32,54l11.33,5.32,1.15-2.74a4.67,4.67,0,0,1-2.27-.91,1.54,1.54,0,0,0-2.12,0,1.52,1.52,0,0,0,0,2.12A7.59,7.59,0,0,0,14,59.43a1.52,1.52,0,0,0,1.77-.87,1.47,1.47,0,0,0-.61-1.87L3.83,51.37a1.54,1.54,0,0,0-2,.54A1.51,1.51,0,0,0,2.32,54Z"/><path class="cls-1" d="M25.26,14.43a64.23,64.23,0,0,1-14.8,5.24c-1.88.42-1.09,3.32.8,2.9A67.39,67.39,0,0,0,26.77,17c1.73-.87.21-3.46-1.51-2.59Z"/><path class="cls-1" d="M23.19,25.77a108.68,108.68,0,0,1-12.74,5.61,1.53,1.53,0,0,0-1,1.84,1.5,1.5,0,0,0,1.84,1.05,113.45,113.45,0,0,0,13.46-5.91c1.71-.89.2-3.48-1.52-2.59Z"/><path class="cls-1" d="M40.63,24.63c-.9,2.4-1.8,4.57-2.86,6.88-.13.29-.26.59-.41.88.09-.18,0,0-.07.06a4,4,0,0,0-.37.45,1.92,1.92,0,0,0,.27,2.41,1.67,1.67,0,0,0,2.59-.42,1.65,1.65,0,0,0-1-2.41A1.5,1.5,0,1,0,38,35.37l.06,0-.89-.69,0,0L37,34l.33-.8L38,32.8l-.07,0h.73l.66.38.11.14.2.76c0-.33-.11-.15-.25.53l.19-.2a2.85,2.85,0,0,0,.43-.6c.2-.39.37-.8.55-1.2.34-.75.68-1.5,1-2.25.7-1.64,1.36-3.28,2-4.94a1.52,1.52,0,0,0-1.05-1.85,1.54,1.54,0,0,0-1.84,1.05Z"/><path class="cls-1" d="M28.59,30A13.88,13.88,0,0,0,31.87,43.3a1.51,1.51,0,0,0,1.64.31,1.58,1.58,0,0,0,.93-1.38l.13-1a1.51,1.51,0,0,0-1.5-1.5,1.53,1.53,0,0,0-1.5,1.5l-.13,1L34,41.17a10.7,10.7,0,0,1-2.51-10.34c.54-1.86-2.36-2.65-2.9-.8Z"/><path class="cls-1" d="M38,42.67a53,53,0,0,0,10.84,1.7,1.5,1.5,0,0,0,0-3,48.85,48.85,0,0,1-10-1.59,1.5,1.5,0,0,0-.8,2.89Z"/><path class="cls-1" d="M31.3,52.62a26,26,0,0,0,14.19-1.88A1.51,1.51,0,0,0,46,48.69,1.54,1.54,0,0,0,44,48.15a22.41,22.41,0,0,1-11.89,1.58,1.54,1.54,0,0,0-1.84,1.05,1.5,1.5,0,0,0,1.05,1.84Z"/><path class="cls-1" d="M28.32,65.25a34,34,0,0,0,12.47-2.19,1.53,1.53,0,0,0,1.05-1.84,1.5,1.5,0,0,0-1.84-1,31.74,31.74,0,0,1-11.68,2.08c-1.93,0-1.93,3,0,3Z"/><path class="cls-1" d="M17.38,76.82a4,4,0,0,0,1.27,3,1.52,1.52,0,0,0,1.06.44,1.58,1.58,0,0,0,1.06-.44,2.69,2.69,0,0,0,.62-.8,3.47,3.47,0,0,0,.37-1.31h-3v2.34a1.56,1.56,0,0,0,.44,1.06,1.5,1.5,0,0,0,2.56-1.06l.05-1.87-1.5,1.5,1.29-.06a1.59,1.59,0,0,0,1.06-.44,1.52,1.52,0,0,0,.44-1.06,1.49,1.49,0,0,0-1.5-1.5l-1.29.06a1.54,1.54,0,0,0-1.06.44,1.61,1.61,0,0,0-.44,1.06l-.05,1.87h3V77.74a1.56,1.56,0,0,0-.44-1.06,1.5,1.5,0,0,0-2.12,0L19,77a1.42,1.42,0,0,0-.21.75v.05l0-.4a1.6,1.6,0,0,1-.11.39l.15-.35a1.54,1.54,0,0,1-.23.39l.24-.31a2.23,2.23,0,0,1-.21.22h2.12a2.38,2.38,0,0,1-.35-.36l.24.3a2.31,2.31,0,0,1-.31-.52l.16.36a2.42,2.42,0,0,1-.17-.64l.05.4a2.26,2.26,0,0,1,0-.45,1.54,1.54,0,0,0-.44-1.06,1.52,1.52,0,0,0-1.06-.44,1.5,1.5,0,0,0-1.06.44,1.61,1.61,0,0,0-.44,1.06Z"/></g></g></svg>