<svg xmlns="http://www.w3.org/2000/svg" viewBox="0 0 84.39 109.81"><defs><style>.cls-1{fill:#ff7f32;}</style></defs><g id="Capa_2" data-name="Capa 2"><g id="Capa_1-2" data-name="Capa 1"><path class="cls-1" d="M54.13,12.22c7.73,0,7.74-12,0-12s-7.73,12,0,12Z"/><path class="cls-1" d="M49,3.2C32.89,26.19,33,55,33.85,81.87l11.78-1.59c-2.44-10.15,10.57-16,17.69-19.49,4.15-2,8.84-4.08,12.17-7.37a10.77,10.77,0,0,0,3-5.08,15.9,15.9,0,0,0,.35-2.77c0-.69.41-2.72-.36-2,5.71-5.23-2.79-13.7-8.48-8.49A10,10,0,0,0,66.8,42a15.59,15.59,0,0,1,0,3c0,.77,0,.82.08.12L65.46,46A140.63,140.63,0,0,0,48.3,55.2c-9.71,6.06-17.09,16.43-14.24,28.27,1.58,6.54,12,5.19,11.79-1.6C45.09,57,44.44,30.55,59.32,9.25c4.43-6.34-6-12.35-10.36-6Z"/><path class="cls-1" d="M46,39.35C43,33,39.74,26.45,34.31,21.79a34.39,34.39,0,0,0-9.66-5.5c-1.55-.64-3.13-1.18-4.62-1.95a21,21,0,0,1-2.45-1.48c-1.06-1.69-2-1.31-2.92,1.16L6.46,5.81a14.59,14.59,0,0,0-1.39,4.92c-.43,3.24,3.06,6,6,6,3.59,0,5.57-2.8,6-6l-.25,1.14C19.27,6.86,14,.13,8.61,3.66-1.14,10,7,21.27,14.63,25c4.65,2.27,9.73,3.38,13.35,7.31,3.42,3.71,5.53,8.57,7.63,13.09,3.24,7,13.59.91,10.36-6.06Z"/><path class="cls-1" d="M32.57,75.35c.44,5.78-1.11,10-4,14.91-2.24,3.74-4.5,8.5-3.24,13,1.36,4.84,5.79,5.77,10.15,6.18A98.35,98.35,0,0,0,55,109.21c2.41-.25,5.34-1.66,5.78-4.4,1.14-7-1.15-12.7-5.3-18.32-3.79-5.12-5.55-11-9.51-16-3-3.8-8.72-1.17-10,2.65-2,5.94-6.6,14-4.78,20.34,1.71,6,7.71,8.45,13.27,9.33,6.16,1,9.6-5.18,5.84-10l-.88-1.14c-4.73-6.09-13.17,2.45-8.49,8.49l.89,1.14,5.83-10c-.89-.14-3.74-.32-4.44-1s.2-2,.63-3.13c1.32-3.57,2.47-7.2,3.7-10.8L37.49,79c2.55,3.2,3.22,7.53,5.61,10.91,2.23,3.15,6.81,7.5,6.12,11.76L55,97.21a101.15,101.15,0,0,1-13.7.57c-1.3,0-2.61-.1-3.91-.2-2.18-.75-2.57-.26-1.19,1.47.83,3.53,1.56-.78,2.3-2.09,3.93-7,6.69-13.33,6.06-21.61-.58-7.65-12.59-7.72-12,0Z"/><path class="cls-1" d="M46.92,75.24C45.07,69.39,41.16,65.06,36,61.84a85.21,85.21,0,0,0-9.54-4.57c-2.22-1-6.65-2.51-7.63-5-1.7-4.35-6.38-5.75-10-2.65a6.22,6.22,0,0,0-2.16,5.18c.36,7.69,12.37,7.73,12,0l0-.57-1.76,4.24.44-.36-10-2.65c2.44,6.23,7.22,9.45,13.15,12.19,5.28,2.44,13,4.59,14.94,10.8,2.32,7.34,13.91,4.21,11.58-3.19Z"/><path class="cls-1" d="M17.21,13.16,22.9,8.53a1.52,1.52,0,0,0,.44-1.06,1.5,1.5,0,0,0-.44-1.06A1.46,1.46,0,0,0,21.84,6a1.7,1.7,0,0,0-1.06.44L15.09,11a1.52,1.52,0,0,0-.44,1.06,1.5,1.5,0,0,0,.44,1.06,1.47,1.47,0,0,0,1.06.44,1.68,1.68,0,0,0,1.06-.44Z"/><path class="cls-1" d="M24.75,18.89A14.87,14.87,0,0,0,31,11.7a1.49,1.49,0,0,0-.15-1.15,1.52,1.52,0,0,0-.9-.69,1.49,1.49,0,0,0-1.15.15,1.77,1.77,0,0,0-.69.9c.17-.41,0,.07-.09.18l-.24.49c-.16.31-.34.61-.52.9s-.36.55-.56.82c0,0-.22.26-.06.08l-.07.08-.35.42a13,13,0,0,1-1.46,1.41l-.19.16c-.17.13-.1.05,0,0a3.79,3.79,0,0,0-.4.3c-.3.2-.61.4-.92.58a1.5,1.5,0,1,0,1.51,2.59Z"/><path class="cls-1" d="M44.74,15.14A20.36,20.36,0,0,1,43,13.54q-.42-.43-.81-.9l-.37-.45c-.11-.13.13.18,0,0l-.19-.26a16.51,16.51,0,0,1-1.27-2c-.19-.33-.36-.68-.52-1l-.27-.59c.06.13.06.14,0,0a3.65,3.65,0,0,1-.14-.35,1.54,1.54,0,0,0-1.85-1,1.52,1.52,0,0,0-1,1.84,20.24,20.24,0,0,0,6.13,8.55,1.54,1.54,0,0,0,2.12,0,1.51,1.51,0,0,0,0-2.12Z"/><path class="cls-1" d="M48.58,8.12c-.15-.26-.28-.53-.41-.79s-.07-.16,0,0l-.09-.24-.14-.36A10.91,10.91,0,0,1,47.49,5l0-.19c0,.19,0,.2,0,0s0-.29,0-.44,0-.6,0-.89,0-.6,0-.89c0-.08.07-.54,0-.17,0-.17,0-.34.08-.51a1.5,1.5,0,1,0-2.89-.79A12.72,12.72,0,0,0,46,9.64a1.51,1.51,0,0,0,2.6-1.52Z"/><path class="cls-1" d="M53.62,14.75a16.55,16.55,0,0,0,11.56-3.68,1.51,1.51,0,0,0,0-2.12,1.54,1.54,0,0,0-2.12,0,13.49,13.49,0,0,1-9.44,2.8,1.5,1.5,0,0,0,0,3Z"/><path class="cls-1" d="M46.56,27.11a17.13,17.13,0,0,0,13.29-5.94,1.53,1.53,0,0,0,0-2.12,1.51,1.51,0,0,0-2.12,0,14.25,14.25,0,0,1-11.17,5.06c-1.93,0-1.93,3,0,3Z"/><path class="cls-1" d="M45.3,38.41a20.1,20.1,0,0,0,8.09-3.63,1.5,1.5,0,0,0-1.51-2.59,18.81,18.81,0,0,1-3.61,2.15c-.06,0-.49.21-.19.09l-.5.2-1,.35a18.87,18.87,0,0,1-2.06.53,1.51,1.51,0,0,0-1,1.85,1.54,1.54,0,0,0,1.84,1Z"/><path class="cls-1" d="M49.51,44.5a12.39,12.39,0,0,0-.29,5.55,10.46,10.46,0,0,0,.69,2.38c.2.47.41.93.65,1.38.08.17.09.2,0,.09a1.32,1.32,0,0,1,.09.3c0-.15,0-.14,0,0,.14-.38.15-.46,0-.22a1.52,1.52,0,0,0,.54,2,1.54,1.54,0,0,0,2.06-.54,3.2,3.2,0,0,0-.16-3.23,9.84,9.84,0,0,1-.87-2.24A7.8,7.8,0,0,1,52,47.67a7.68,7.68,0,0,1,.39-2.37,1.5,1.5,0,0,0-2.9-.8Z"/><path class="cls-1" d="M58.15,44.29A12.5,12.5,0,0,0,61.58,51a1.5,1.5,0,0,0,2.12,0,1.52,1.52,0,0,0,0-2.12q-.3-.3-.57-.63L63,48.14l0,0c.13.17,0,0,0-.05l-.12-.16a11.31,11.31,0,0,1-.88-1.46l-.17-.36c0-.07,0-.13-.08-.19s.1.27,0,.08-.21-.53-.29-.8a10.5,10.5,0,0,1-.38-1.66,1.5,1.5,0,0,0-1.85-1.05,1.55,1.55,0,0,0-.9.69,1.78,1.78,0,0,0-.15,1.16Z"/><path class="cls-1" d="M75.88,47a27.46,27.46,0,0,0,7.76-3.85,1.54,1.54,0,0,0,.54-2.06,1.51,1.51,0,0,0-2.05-.53,27.61,27.61,0,0,1-3.5,2.12c-.31.15-.63.31-.95.45l-.36.16c-.16.07-.16.07,0,0l-.24.1c-.65.26-1.32.5-2,.71a1.5,1.5,0,1,0,.8,2.89Z"/><path class="cls-1" d="M55.9,62a36.51,36.51,0,0,0,9.41,3.59,1.5,1.5,0,1,0,.8-2.89,34.78,34.78,0,0,1-4.57-1.37,32.22,32.22,0,0,1-4.12-1.92A1.5,1.5,0,1,0,55.9,62Z"/><path class="cls-1" d="M68,57.61c5.07,1,10.17,1.44,15.27.41a1.51,1.51,0,0,0,1-1.84,1.53,1.53,0,0,0-1.85-1c-4.54.92-9.16.43-13.67-.41a1.54,1.54,0,0,0-1.85,1.05,1.51,1.51,0,0,0,1,1.84Z"/><path class="cls-1" d="M14,59.72a36.24,36.24,0,0,1-4.66.18c-.76,0-1.52-.06-2.28-.13L6,59.66l-.33,0-.3,0c-.26-.07-.17,0,.25.15l.38.66,0,.21-.21.75-.12.15L5,61.87l.09,0h-.8l.09,0A1.5,1.5,0,1,0,5.17,59a1.72,1.72,0,0,0-2,.86,1.8,1.8,0,0,0,.63,2.34,3.86,3.86,0,0,0,1.76.44c.58.08,1.15.14,1.73.19A36.25,36.25,0,0,0,14,62.72a1.5,1.5,0,0,0,0-3Z"/><path class="cls-1" d="M23.33,51.3l.32.36c.1.12.05.08,0,0l.17.24a6.07,6.07,0,0,1,.48.82l.11.21c.06.14.09.21,0,0,.06.15.12.3.17.45a7.68,7.68,0,0,1,.26,1c0,.08,0,.16.05.23s.05.3,0,.1,0,0,0,.09a1.94,1.94,0,0,0,0,.24c0,.34,0,.67,0,1,0,.09,0,.41,0,.47s0-.27,0,0c0,.07,0,.15,0,.23a9.22,9.22,0,0,1-.28,1,1.52,1.52,0,0,0,1,1.85,1.55,1.55,0,0,0,1.85-1.05,9.48,9.48,0,0,0-2-9.33,1.52,1.52,0,0,0-2.13,0,1.54,1.54,0,0,0,0,2.12Z"/><path class="cls-1" d="M26.36,66.73a38.13,38.13,0,0,1-11.49,2.59l1.06,2.56.34-.43a1.53,1.53,0,0,0,0-2.12,1.51,1.51,0,0,0-2.12,0l-.34.43a1.55,1.55,0,0,0-.31,1.64,1.49,1.49,0,0,0,1.37.92,41,41,0,0,0,12.28-2.69,1.55,1.55,0,0,0,1.05-1.85,1.51,1.51,0,0,0-1.84-1Z"/><path class="cls-1" d="M1.5,19.17a84,84,0,0,0,10.76.3,1.5,1.5,0,0,0,0-3,84,84,0,0,1-10.76-.3A1.5,1.5,0,0,0,0,17.67a1.54,1.54,0,0,0,1.5,1.5Z"/><path class="cls-1" d="M8.53,28a13.43,13.43,0,0,0,12.19-3.44l-2.56-1.06v.86a1.5,1.5,0,0,0,3,0v-.86a1.51,1.51,0,0,0-2.56-1.06A10.2,10.2,0,0,1,14.28,25a8.77,8.77,0,0,1-2.38.39,13.27,13.27,0,0,1-1.41,0l-.33,0h-.09l-.74-.14a1.53,1.53,0,0,0-1.84,1.05,1.5,1.5,0,0,0,1,1.84Z"/><path class="cls-1" d="M28.37,28.68c.05-.13,0-.12-.05,0,.09-.11.08-.1,0,0l-.21.19c.1-.09.08-.08-.06,0l-.4.23-.28.13c.12-.06.1-.05-.07,0-.92.33-1.83.66-2.76.95a53.84,53.84,0,0,1-5.88,1.49,1.51,1.51,0,0,0-1.05,1.84,1.53,1.53,0,0,0,1.85,1.05,53,53,0,0,0,6.66-1.74,23.72,23.72,0,0,0,3-1.15,4.3,4.3,0,0,0,2.14-2.3,1.52,1.52,0,0,0-1.05-1.85,1.54,1.54,0,0,0-1.84,1.05Z"/></g></g></svg>