<svg xmlns="http://www.w3.org/2000/svg" viewBox="0 0 85.06 93.37"><defs><style>.cls-1{fill:#ff7f32;}</style></defs><g id="Capa_2" data-name="Capa 2"><g id="Capa_1-2" data-name="Capa 1"><path class="cls-1" d="M6,54.77c11,1.46,19.92,9.84,27.78,17a6.15,6.15,0,0,0,7.27.94c9.67-5.88,22.07-11.13,28.86-20.53,5.61-7.77,6.64-18.34,13.42-25.29,5.4-5.53-3.08-14-8.48-8.48-6.73,6.9-8.59,16-13.07,24.18-2.42,4.42-5.8,7-10,9.56C46.18,55.59,40.58,59,35,62.36l7.27.94C31.63,53.59,20.7,44.71,6,42.77c-3.24-.43-6,3.06-6,6,0,3.59,2.8,5.58,6,6Z"/><path class="cls-1" d="M41.57,69.79c7.73,0,7.74-12,0-12s-7.73,12,0,12Z"/><path class="cls-1" d="M47.09,62.46c-.18-1,2.93-5.21,3.34-6.23a33.76,33.76,0,0,0,2-8.28c.74-5.78,1.1-11.29-1.24-16.75C47.08,21.67,42.49,10,33.53,4.07,27.07-.19,21.05,10.2,27.47,14.44,31.21,16.9,33,21.3,34.94,25.18,37,29.37,40.53,34.31,41.06,39A28,28,0,0,1,38.7,53.15c-2.22,4.43-4.13,7.4-3.18,12.5,1.41,7.58,13,4.37,11.57-3.19Z"/><path class="cls-1" d="M35.23,65.69c-2,3.76-3.9,7.55-5.71,11.4-1.7,3.61-4.23,7.67-2.17,11.65,1.87,3.63,5.33,4,9,4.31a113.07,113.07,0,0,0,14.14.18c3.5-.17,5.65-2.64,6-6,.59-5.71-2.57-10.13-3.35-15.54-.36-2.55.21-4.67-1.43-7a7,7,0,0,0-7.43-2.67c-7.84,2.16-21.14,19.8-8.61,24.07a5.9,5.9,0,0,0,5.84-1.55l.37-.4c5.25-5.65-3.22-14.16-8.49-8.48l-.37.4,5.84-1.54-.6-.21,4.19,4.19-.16-.62v3.19A11.57,11.57,0,0,1,48.94,73l-3,.82.7,0-4.24-1.76.41.46L41.25,70c0-.12,0,3,.16,3.74a29,29,0,0,0,1.21,4.66c1,3,2.24,5.65,1.91,8.86l6-6c-2.73.13-5.46.18-8.19.12-1.24,0-2.48-.07-3.72-.14l-1.49-.1c-2.26-.46-2.06.07.58,1.58l.82,3c.14-1.63,2.35-4.68,3.19-6.39,1.25-2.55,2.55-5.07,3.87-7.57,3.61-6.83-6.74-12.9-10.36-6.06Z"/><path class="cls-1" d="M35.33,19.59a11.79,11.79,0,0,1-9.86-3.68A1.5,1.5,0,1,0,23.35,18a14.72,14.72,0,0,0,12,4.56,1.54,1.54,0,0,0,1.5-1.5,1.51,1.51,0,0,0-1.5-1.5Z"/><path class="cls-1" d="M38.3,11.35A13.14,13.14,0,0,0,37,.75a1.5,1.5,0,1,0-2.59,1.51,8.64,8.64,0,0,1,.89,1.89,10.79,10.79,0,0,1,.34,1.2l.09.46c0,.1,0,.21,0,.31,0-.14,0-.12,0,.06a13,13,0,0,1,0,2.33s-.06.48,0,.22c0,.21-.07.41-.11.62a10.65,10.65,0,0,1-.32,1.2,1.51,1.51,0,0,0,1.05,1.84,1.53,1.53,0,0,0,1.85-1Z"/><path class="cls-1" d="M45,23.79c-.29-2.82.4-5.67.85-8.44L47.24,6.5a1.55,1.55,0,0,0-1.05-1.84,1.51,1.51,0,0,0-1.85,1l-1.47,9.2c-.47,2.91-1.21,5.93-.9,8.89a1.54,1.54,0,0,0,1.5,1.5,1.5,1.5,0,0,0,1.5-1.5Z"/><path class="cls-1" d="M51.48,34a22.49,22.49,0,0,0-.1-13.7,1.54,1.54,0,0,0-1.85-1.05,1.51,1.51,0,0,0-1,1.84,19.65,19.65,0,0,1,.09,12.11C48,35,50.9,35.8,51.48,34Z"/><path class="cls-1" d="M63.65,44.5a12.35,12.35,0,0,0-3.92-9.69,1.5,1.5,0,0,0-2.12,2.12,10.32,10.32,0,0,1,.8.82l.35.42c.16.19-.19-.28.05.07.06.07.11.15.16.22a11.2,11.2,0,0,1,.6,1c.08.16.17.33.24.49l.12.24c.11.22-.12-.31,0,.08a11.68,11.68,0,0,1,.61,2.15c0,.11,0,.22,0,.34h0c0,.18,0,.36,0,.54,0,.41,0,.81,0,1.22a1.51,1.51,0,0,0,1.5,1.5,1.54,1.54,0,0,0,1.5-1.5Z"/><path class="cls-1" d="M70.42,32a15.43,15.43,0,0,1-4.29-11.27,1.5,1.5,0,1,0-3,0,18.51,18.51,0,0,0,5.16,13.4c1.35,1.39,3.47-.74,2.13-2.13Z"/><path class="cls-1" d="M73,43.6a12,12,0,0,0,8.65-7.36,1.5,1.5,0,0,0-1-1.84,1.54,1.54,0,0,0-1.85,1.05c-.14.35.14-.3,0,0l-.12.25c-.09.19-.18.37-.28.55a10.1,10.1,0,0,1-.67,1c-.22.31.2-.24,0,.05l-.18.22c-.13.15-.27.31-.41.45a9,9,0,0,1-.9.84s-.28.23-.11.1-.08.06-.11.08l-.56.38a11.24,11.24,0,0,1-1.07.6l-.26.12c-.3.13,0,0,0,0a4.79,4.79,0,0,1-.58.21,10.28,10.28,0,0,1-1.24.33,1.51,1.51,0,0,0-1,1.84A1.55,1.55,0,0,0,73,43.6Z"/><path class="cls-1" d="M57.53,59.62A31.6,31.6,0,0,0,71.8,58.7c1.84-.56,1.06-3.44-.8-2.89l-2.54.74c-1.84.54-1.06,3.44.8,2.89l2.54-.74L71,55.81a28.3,28.3,0,0,1-12.67.92,1.54,1.54,0,0,0-1.84,1.05,1.5,1.5,0,0,0,1,1.84Z"/><path class="cls-1" d="M10.69,41.23a5.67,5.67,0,0,1,.74.73c.09.11.14.19,0,0a2.43,2.43,0,0,1,.14.2,4.43,4.43,0,0,1,.29.46,5.42,5.42,0,0,1,.26.48c0,.09.22.49.1.19.14.35.26.7.37,1a17.06,17.06,0,0,1,.48,2.09c.07.37.12.75.18,1.12,0,.08,0,.16,0,.25,0,.25,0,0,0-.06s-.08.36,0,.1.12-.68.74-.79h.8a1.23,1.23,0,0,1,.74,1.77l-.53.54,0,0-.76.2h0l-.75-.21,0,0a1.5,1.5,0,0,0,1.51-2.59,1.62,1.62,0,0,0-2.43,1.44A1.74,1.74,0,0,0,14.92,50c1.87-.61,1.34-2.72,1.08-4.17-.42-2.45-1.23-5-3.19-6.67a1.5,1.5,0,0,0-2.12,2.12Z"/><path class="cls-1" d="M22,44.45a17.36,17.36,0,0,1,6.45,10.2,1.5,1.5,0,0,0,1.84,1,1.52,1.52,0,0,0,1.05-1.84,20.4,20.4,0,0,0-7.83-12,1.5,1.5,0,0,0-2.05.53A1.54,1.54,0,0,0,22,44.45Z"/><path class="cls-1" d="M19.13,56.39a17.41,17.41,0,0,1-9.43-.85,1.5,1.5,0,0,0-1.84,1,1.53,1.53,0,0,0,1,1.85,20.38,20.38,0,0,0,11,.86A1.52,1.52,0,0,0,21,57.44a1.54,1.54,0,0,0-1.85-1Z"/><path class="cls-1" d="M26.28,62.35a28.75,28.75,0,0,1-10.17.45,1.56,1.56,0,0,0-1.85,1.05,1.51,1.51,0,0,0,1.05,1.84,32.81,32.81,0,0,0,11.77-.45,1.5,1.5,0,1,0-.8-2.89Z"/><path class="cls-1" d="M42.37,38.09s.3-.14.3-.07-.55-.18-.48-.15a12.92,12.92,0,0,1-1.33-.79l-3.14-2-6.39-4c-1.65-1-3.15,1.57-1.52,2.59l7.48,4.65a34.23,34.23,0,0,0,3.47,2.12,3.15,3.15,0,0,0,3.73-.29c1.39-1.35-.73-3.47-2.12-2.12Z"/></g></g></svg>