<svg xmlns="http://www.w3.org/2000/svg" viewBox="0 0 78.67 107.37"><defs><style>.cls-1{fill:#ff7f32;}</style></defs><g id="Capa_2" data-name="Capa 2"><g id="Capa_1-2" data-name="Capa 1"><path class="cls-1" d="M6.71,8.86C9.22,18.39,16.32,24.6,22,32.21c3.05,4.08,5.37,8.53,9.1,12.08,4.22,4,9,7.51,13.51,11.19,4.95,4,12.06-3,7.07-7.07C47.86,45.27,44,42.2,40.19,39c-4-3.44-6.44-7.6-9.54-11.82-5-6.78-12.08-12.55-14.29-21C14.72,0,5.07,2.62,6.71,8.86Z"/><path class="cls-1" d="M40.74,7.64C44,14.79,42.44,23,42.27,30.57A91.23,91.23,0,0,0,45,53c3.66,16.08,7,32.14,9.42,48.47.92,6.35,10.55,3.65,9.64-2.66-2.46-17-6.17-33.57-9.83-50.31a89.13,89.13,0,0,1-1.71-24.06c.36-7.65,0-14.77-3.17-21.83-2.66-5.86-11.28-.78-8.64,5Z"/><path class="cls-1" d="M59.64,80.77c1.3-4.2,5.2-7.73,7.37-11.56,2.37-4.19,4.35-8.34,8.14-11.45,5-4.08-2.12-11.12-7.07-7.07-4.43,3.62-6.94,8.58-9.71,13.47s-6.74,8.65-8.37,14c-1.89,6.16,7.76,8.8,9.64,2.65Z"/><path class="cls-1" d="M48.77,76c-2.11,4.46-4.35,8.88-6.3,13.4C40.89,93.09,39,98,40.45,102c2.91,7.87,17.36,4.78,23.55,4.45,2-.1,4.51-1.46,4.82-3.67.61-4.32-.71-7-3.43-10.3-3.08-3.72-5-7.5-5.19-12.41l-6.32,4.82c1.67.54,3.17,5.08,3.63,6.58a22,22,0,0,1,.85,7.58l6.33-4.82c-1.53-.27-8.33-1-7.78-3.8l-8.36,2.2.66.69-1.47-3.53.17-.79c-3.87,5.15,4.81,10.14,8.63,5,2.11-2.8,1.37-6.09-.92-8.49C53.16,83,48,84.09,47.26,87.81c-1.88,9.77,6.33,14.65,14.77,16.1,3.26.56,6.19-1.34,6.33-4.82.33-8.36-2.86-20.92-11.83-23.81a5,5,0,0,0-6.33,4.83A30.51,30.51,0,0,0,53,92a26.78,26.78,0,0,0,3.1,5c.56.74,1.18,1.42,1.77,2.13.35.43,1.14,2,1.28,1L64,96.49,55.15,97c-2.22.11-5.4.72-7.36-.58l2.3,3C49.33,96.47,52,92.55,53.15,90q2.13-4.49,4.25-9c2.75-5.78-5.87-10.87-8.63-5Z"/><path class="cls-1" d="M45.5,16.92A12.85,12.85,0,0,0,37.88,10a1.51,1.51,0,0,0-1.85,1,1.53,1.53,0,0,0,1,1.85c.19.06.38.14.57.21s-.2-.09,0,0l.27.13c.34.16.67.33,1,.52s.65.43,1,.65-.17-.13,0,0l.19.16.46.4c.27.25.53.52.78.8s.24.28.35.42l.1.12c-.12-.16-.15-.19-.08-.1l.15.2a11.24,11.24,0,0,1,1.14,2A1.49,1.49,0,0,0,45,19a1.55,1.55,0,0,0,.54-2Z"/><path class="cls-1" d="M42.51,29.23c-.22-.16.18.15,0,0l-.19-.15L42,28.82c-.21-.19-.42-.39-.62-.6s-.63-.62-.6-.7.21.28,0,0l-.12-.15-.27-.4c-.16-.25-.3-.5-.44-.75,0-.08-.38-.83-.4-.83s.12.31,0,.09l-.09-.23-.15-.41c-.1-.31-.18-.62-.25-.93a1.52,1.52,0,0,0-1.85-1.05,1.54,1.54,0,0,0-1,1.85A12.38,12.38,0,0,0,41,31.82a1.51,1.51,0,0,0,2.06-.54,1.55,1.55,0,0,0-.54-2.05Z"/><path class="cls-1" d="M52.18,16.19A18.61,18.61,0,0,0,54.72,8a16.52,16.52,0,0,0,0-2,4.36,4.36,0,0,0-.48-2.23,1.75,1.75,0,0,0-2.72-.28,1.7,1.7,0,0,0,.33,2.64,1.5,1.5,0,1,0,1.51-2.59l-.07,0,.69.89,0-.07v.8l-.25.43-.66.39-.22,0-.75-.21.11.07-.54-.53c.17.21,0-.27,0,.14,0,.19,0,.38,0,.57,0,.44,0,.88,0,1.33a13.15,13.15,0,0,1-.29,2.52,15.6,15.6,0,0,1-1.87,4.84,1.5,1.5,0,1,0,2.59,1.51Z"/><path class="cls-1" d="M50.57,33.6a70.89,70.89,0,0,0,7.88-14.2,1.49,1.49,0,0,0-1-1.84,1.53,1.53,0,0,0-1.85,1A67.74,67.74,0,0,1,48,32.09a1.51,1.51,0,0,0,.54,2,1.53,1.53,0,0,0,2-.54Z"/><path class="cls-1" d="M52.12,49.94a15.11,15.11,0,0,1,7-10.39A1.5,1.5,0,0,0,57.61,37a18.07,18.07,0,0,0-8.38,12.18,1.55,1.55,0,0,0,1,1.85,1.52,1.52,0,0,0,1.85-1.05Z"/><path class="cls-1" d="M63.89,57.05a8.36,8.36,0,0,1-.23-1c0-.09,0-.17,0-.25,0,.19,0,.2,0,0s0-.25,0-.37c0-.33,0-.66,0-1,0-.16,0-.33,0-.49l0-.25c0,.17,0,.21,0,.09a12.58,12.58,0,0,1,.48-1.8s0-.11.07-.17v0c.07-.15.14-.3.22-.45a7.35,7.35,0,0,1,.51-.85,1.5,1.5,0,1,0-2.59-1.52A10.65,10.65,0,0,0,61,57.85a1.5,1.5,0,1,0,2.9-.8Z"/><path class="cls-1" d="M62.08,74.07a37.15,37.15,0,0,0,15.86-3.16,1.51,1.51,0,0,0,.54-2,1.55,1.55,0,0,0-2-.54,33.69,33.69,0,0,1-14.35,2.75c-1.93,0-1.93,3,0,3Z"/><path class="cls-1" d="M11.3,15.9a16.13,16.13,0,0,1-4.8-2.1,15,15,0,0,1-2-1.44,19.67,19.67,0,0,1-2-2,1.51,1.51,0,0,0-2.13,0,1.55,1.55,0,0,0,0,2.12,20.28,20.28,0,0,0,10.09,6.31,1.5,1.5,0,1,0,.79-2.89Z"/><path class="cls-1" d="M24.7,28.56A38.81,38.81,0,0,1,12.31,21.9a1.54,1.54,0,0,0-2.12,0,1.5,1.5,0,0,0,0,2.12,42.53,42.53,0,0,0,13.72,7.43c1.84.59,2.63-2.3.79-2.89Z"/><path class="cls-1" d="M28.64,36.12A64.07,64.07,0,0,1,17.17,32a1.54,1.54,0,0,0-2.05.54,1.51,1.51,0,0,0,.54,2A68.34,68.34,0,0,0,27.85,39a1.5,1.5,0,0,0,.79-2.9Z"/><path class="cls-1" d="M23,17.1A11.46,11.46,0,0,0,21.7,6.49,1.54,1.54,0,0,0,19.65,6,1.52,1.52,0,0,0,19.11,8a9.35,9.35,0,0,1,.63,1l.27.53.12.27c-.06-.13-.05-.12,0,0,.13.37.26.74.36,1.13,0,.19.09.38.12.58,0,0,.09.62.06.33a8.18,8.18,0,0,1-.59,4.4,1.5,1.5,0,0,0,1.05,1.84,1.54,1.54,0,0,0,1.85-1Z"/><path class="cls-1" d="M32.57,30.26a22.64,22.64,0,0,0,0-12.64,1.5,1.5,0,0,0-2.89.79,19.78,19.78,0,0,1,0,11.05,1.5,1.5,0,0,0,2.89.8Z"/><path class="cls-1" d="M37.08,46.25A23.15,23.15,0,0,1,24,44.7a1.52,1.52,0,0,0-1.85,1,1.54,1.54,0,0,0,1.05,1.85,26.11,26.11,0,0,0,14.67,1.55,1.52,1.52,0,0,0,1-1.85,1.54,1.54,0,0,0-1.85-1Z"/><path class="cls-1" d="M48.06,65.81a27.23,27.23,0,0,1-9.42-6.58,1.5,1.5,0,0,0-2.13,2.12A30.41,30.41,0,0,0,47.26,68.7a1.51,1.51,0,0,0,1.85-1,1.55,1.55,0,0,0-1-1.85Z"/></g></g></svg>